g Box134
v -0.3445861 -0.4091644 0
v 0.3590487 0.4290372 0
v -0.3445861 0.4290372 0
v 0.3590487 -0.4091644 0
v 0.3590487 -0.4091644 0
v -0.3445861 -0.4091645 0.4176516
v 0.3590487 -0.4091644 0.4176516
v -0.3445861 -0.4091644 0
v 0.3590487 0.4290372 0
v 0.3590487 -0.4091644 0.4176516
v 0.3590487 0.4290372 0.4176516
v 0.3590487 -0.4091644 0
v -0.3445861 0.4290372 0
v 0.3590487 0.4290372 0.4176516
v -0.3445861 0.4290372 0.4176516
v 0.3590487 0.4290372 0
v -0.3445861 -0.4091644 0
v -0.3445861 0.4290372 0.4176516
v -0.3445861 -0.4091645 0.4176516
v -0.3445861 0.4290372 0
v 0.2206475 -0.4557903 0.4026072
v 0.3888764 -0.435918 0.5516627
v 0.3888764 -0.435918 0.4026072
v 0.2206475 -0.4557903 0.5516627
v -0.3744138 -0.435918 0.5516627
v -0.3744138 -0.4359181 0.4026072
v 0.3888764 0.1128076 0.4026072
v 0.3888764 0.4557908 0.5516627
v 0.3888764 0.4557908 0.4026072
v 0.3888764 0.1128076 0.5516627
v 0.3888764 -0.435918 0.5516627
v 0.3888764 -0.435918 0.4026072
v 0.2174599 0.4547414 0.4026072
v -0.3888766 0.4510292 0.5516627
v -0.3888766 0.4510292 0.4026072
v 0.2174599 0.4547414 0.5516627
v 0.3888764 0.4557908 0.5516627
v 0.3888764 0.4557908 0.4026072
v -0.3639814 0.0914946 0.4026072
v -0.3744138 -0.435918 0.5516627
v -0.3744138 -0.4359181 0.4026072
v -0.3639814 0.09149463 0.5516627
v -0.3888766 0.4510292 0.5516627
v -0.3888766 0.4510292 0.4026072
v 0.2174599 0.4547414 0.5516627
v -0.3639814 0.09149463 0.5516627
v -0.3888766 0.4510292 0.5516627
v 0.2229468 0.1081102 0.5516627
v 0.2206475 -0.4557903 0.5516627
v -0.3744138 -0.435918 0.5516627
v 0.3888764 -0.435918 0.5516627
v 0.3888764 0.1128076 0.5516627
v 0.3888764 0.4557908 0.5516627
v -0.3468376 -0.1530373 0.1850104
v -0.3468376 -0.1269421 0.2650057
v -0.3468376 -0.1843477 0.1850104
v -0.3468376 -0.1008531 0.1838507
v -0.3468376 -0.06606361 0.1838507
v -0.3468376 -0.1530373 0.07467331
v -0.3468376 -0.1008531 0.07482336
v -0.3468376 -0.2885101 0.1850104
v -0.3468376 -0.262415 0.2650057
v -0.3468376 -0.3198206 0.1850104
v -0.3468376 -0.236326 0.1838507
v -0.3468376 -0.2015366 0.1838507
v -0.3468376 -0.2885101 0.07467331
v -0.3468376 -0.236326 0.07482336
v 0.1520239 -0.4145016 0.2849635
v 0.1308689 -0.4145016 0.3452298
v 0.1520239 -0.4145016 0.3246614
v -0.1164063 -0.4145017 0.2643952
v 0.1308689 -0.4145016 0.2643952
v -0.1375612 -0.4145016 0.3246614
v -0.1164063 -0.4145016 0.3452298
v -0.1375612 -0.4145017 0.2849635
v 0.1520239 0.431468 0.3246613
v 0.1308689 0.431468 0.2643952
v 0.1520239 0.431468 0.2849635
v -0.1164063 0.4314681 0.3452297
v 0.1308689 0.431468 0.3452297
v -0.1375612 0.431468 0.2849635
v -0.1164063 0.431468 0.2643952
v -0.1375612 0.4314681 0.3246613
vt 0.4861415 0.6876299
vt 0.4084198 0.7328018
vt 0.4861415 0.7328018
vt 0.4084198 0.6876299
vt 0.4861415 0.6866117
vt 0.4084198 0.7244657
vt 0.4861415 0.7244657
vt 0.4084198 0.6866117
vt 0.4876568 0.6866117
vt 0.4069045 0.7244657
vt 0.4876568 0.7244657
vt 0.4069045 0.6866117
vt 0.4861415 0.6866117
vt 0.4084198 0.7244657
vt 0.4861415 0.7244657
vt 0.4084198 0.6866117
vt 0.4876568 0.6866117
vt 0.4069045 0.7244657
vt 0.4876568 0.7244657
vt 0.4069045 0.6866117
vt 0.4702069 0.7250191
vt 0.4887458 0.7353567
vt 0.4887458 0.7250191
vt 0.4702069 0.7353567
vt 0.4046312 0.7353567
vt 0.4046312 0.7250191
vt 0.4564016 0.7250191
vt 0.4884841 0.7353567
vt 0.4884841 0.7250191
vt 0.4564016 0.7353567
vt 0.4050741 0.7353567
vt 0.4050741 0.7250191
vt 0.42317 0.7250191
vt 0.4887458 0.7353567
vt 0.4887458 0.7250191
vt 0.42317 0.7353567
vt 0.4046312 0.7353567
vt 0.4046312 0.7250191
vt 0.4371566 0.7250191
vt 0.4884841 0.7353567
vt 0.4884841 0.7250191
vt 0.4371566 0.7353567
vt 0.4050741 0.7353567
vt 0.4050741 0.7250191
vt 0.5512997 0.6380608
vt 0.5278174 0.6719007
vt 0.5512997 0.6719007
vt 0.5278174 0.6380608
vt 0.4902489 0.6380608
vt 0.4902489 0.6719007
vt 0.4902489 0.628494
vt 0.5278174 0.628494
vt 0.5512997 0.628494
vt 0.4762927 0.7236918
vt 0.4764423 0.7236853
vt 0.4761133 0.7236918
vt 0.4765918 0.7236919
vt 0.4767912 0.7236919
vt 0.4762927 0.7237009
vt 0.4765918 0.7237009
vt 0.4762927 0.7236918
vt 0.4764423 0.7236853
vt 0.4761133 0.7236918
vt 0.4765918 0.7236919
vt 0.4767912 0.7236919
vt 0.4762927 0.7237009
vt 0.4765918 0.7237009
vt 0.3908766 0.7599998
vt 0.3908766 0.7599998
vt 0.3908766 0.7599998
vt 0.3908766 0.7599998
vt 0.3908766 0.7599998
vt 0.3908766 0.7599998
vt 0.3908766 0.7599998
vt 0.3908766 0.7599998
vt 0.3908766 0.7599998
vt 0.3908766 0.7599998
vt 0.3908766 0.7599998
vt 0.3908766 0.7599998
vt 0.3908766 0.7599998
vt 0.3908766 0.7599998
vt 0.3908766 0.7599998
vt 0.3908766 0.7599998
vn 0 0 -1
vn 0 0 -1
vn 0 0 -1
vn 0 0 -1
vn 0 -1 0
vn 0 -1 0
vn 0 -1 0
vn 0 -1 0
vn 1 0 0
vn 1 0 0
vn 1 0 0
vn 1 0 0
vn 0 1 0
vn 0 1 0
vn 0 1 0
vn 0 1 0
vn -1 0 0
vn -1 0 0
vn -1 0 0
vn -1 0 0
vn 0.04208676 -0.999114 0
vn 0.1173105 -0.9930952 0
vn 0.1173105 -0.9930952 0
vn 0.04208675 -0.999114 0
vn -0.03337661 -0.9994429 2.741133E-07
vn -0.0333766 -0.9994429 3.248431E-07
vn 1 0 0
vn 1 0 0
vn 1 0 0
vn 1 0 0
vn 1 0 0
vn 1 0 0
vn -0.006122153 0.9999813 0
vn -0.006122191 0.9999813 0
vn -0.006122191 0.9999813 0
vn -0.006122152 0.9999813 0
vn -0.006122115 0.9999813 0
vn -0.006122115 0.9999813 0
vn -0.9996955 -0.02467486 0
vn -0.9998044 0.01977644 0
vn -0.9998044 0.01977643 0
vn -0.9996955 -0.02467488 0
vn -0.9976113 -0.0690774 0
vn -0.9976113 -0.0690774 0
vn 0 0 1
vn 0 0 1
vn 0 0 1
vn 0 0 1
vn 0 0 1
vn 0 0 1
vn 0 0 1
vn 0 0 1
vn 0 0 1
vn -1 0 0
vn -1 0 0
vn -1 0 0
vn -1 0 0
vn -1 0 0
vn -1 0 0
vn -1 0 0
vn -1 0 0
vn -1 0 0
vn -1 0 0
vn -1 0 0
vn -1 0 0
vn -1 0 0
vn -1 0 0
vn 0 -1 0
vn 0 -1 0
vn 0 -1 0
vn 0 -1 7.634678E-07
vn 0 -1 0
vn 0 -1 6.136428E-07
vn 0 -1 0
vn 1.186546E-06 -1 1.220384E-06
vn 3.128098E-07 1 0
vn 0 1 0
vn 0 1 0
vn 4.299805E-07 1 -1.526936E-06
vn 3.91844E-07 1 4.030186E-07
vn 2.749667E-07 1 -1.227287E-06
vn 0 1 0
vn 2.373097E-06 1 -2.44077E-06
g Box134_0
f 3/3/3 2/2/2 1/1/1
f 4/4/4 1/1/1 2/2/2
f 7/7/7 6/6/6 5/5/5
f 8/8/8 5/5/5 6/6/6
f 11/11/11 10/10/10 9/9/9
f 12/12/12 9/9/9 10/10/10
f 15/15/15 14/14/14 13/13/13
f 16/16/16 13/13/13 14/14/14
f 19/19/19 18/18/18 17/17/17
f 20/20/20 17/17/17 18/18/18
f 23/23/23 22/22/22 21/21/21
f 24/24/24 21/21/21 22/22/22
f 24/24/24 25/25/25 21/21/21
f 26/26/26 21/21/21 25/25/25
f 29/29/29 28/28/28 27/27/27
f 30/30/30 27/27/27 28/28/28
f 30/30/30 31/31/31 27/27/27
f 32/32/32 27/27/27 31/31/31
f 35/35/35 34/34/34 33/33/33
f 36/36/36 33/33/33 34/34/34
f 36/36/36 37/37/37 33/33/33
f 38/38/38 33/33/33 37/37/37
f 41/41/41 40/40/40 39/39/39
f 42/42/42 39/39/39 40/40/40
f 42/42/42 43/43/43 39/39/39
f 44/44/44 39/39/39 43/43/43
f 47/47/47 46/46/46 45/45/45
f 48/48/48 45/45/45 46/46/46
f 48/48/48 46/46/46 49/49/49
f 50/50/50 49/49/49 46/46/46
f 49/49/49 51/51/51 48/48/48
f 52/52/52 48/48/48 51/51/51
f 48/48/48 52/52/52 45/45/45
f 53/53/53 45/45/45 52/52/52
f 56/56/56 55/55/55 54/54/54
f 55/55/55 57/57/57 54/54/54
f 58/58/58 57/57/57 55/55/55
f 57/57/57 59/59/59 54/54/54
f 60/60/60 59/59/59 57/57/57
f 63/63/63 62/62/62 61/61/61
f 62/62/62 64/64/64 61/61/61
f 65/65/65 64/64/64 62/62/62
f 64/64/64 66/66/66 61/61/61
f 67/67/67 66/66/66 64/64/64
f 70/70/70 69/69/69 68/68/68
f 69/69/69 71/71/71 68/68/68
f 68/68/68 71/71/71 72/72/72
f 73/73/73 71/71/71 69/69/69
f 74/74/74 73/73/73 69/69/69
f 75/75/75 71/71/71 73/73/73
f 78/78/78 77/77/77 76/76/76
f 77/77/77 79/79/79 76/76/76
f 76/76/76 79/79/79 80/80/80
f 81/81/81 79/79/79 77/77/77
f 82/82/82 81/81/81 77/77/77
f 83/83/83 79/79/79 81/81/81
