g SM_Helena_CargoTear
v 0.3146878 -1.550293E-06 0.2732718
v 0.4015414 0.2318289 0.2747204
v 0.4636585 -3.875732E-07 0.2747204
v 0.2725275 0.157341 0.2732718
v 0.2318293 0.4015392 0.2747204
v 0.1573485 0.2725221 0.2732718
v 2.325439E-06 0.4636577 0.2747204
v 6.976318E-06 0.3146818 0.2732718
v -0.2318285 0.4015392 0.2747204
v -0.1573385 0.2725221 0.2732718
v -0.4015383 0.2318294 0.2747204
v -0.2725182 0.157341 0.2732718
v -0.4636577 -3.875732E-07 0.2747204
v -0.3146808 -1.356506E-06 0.2732718
v -0.3146808 -1.356506E-06 0.2732718
v -0.4015383 -0.2318289 0.2747204
v -0.4636577 -3.875732E-07 0.2747204
v -0.2725182 -0.1573427 0.2732718
v -0.2318285 -0.4015398 0.2747204
v -0.1573323 -0.2725241 0.2732718
v 2.325439E-06 -0.463657 0.2747204
v 6.976318E-06 -0.3146835 0.2732718
v 0.2318293 -0.4015398 0.2747204
v 0.1573485 -0.2725241 0.2732718
v 0.4015414 -0.2318293 0.2747204
v 0.2725275 -0.1573427 0.2732718
v 0.4636585 -3.875732E-07 0.2747204
v 0.3146878 -1.550293E-06 0.2732718
v -0.4015367 -0.2318285 -1.555138E-05
v -0.3182178 -1.356506E-06 -1.497002E-05
v -0.4636577 -3.875732E-07 -1.555138E-05
v -0.2755855 0.1591106 -1.497002E-05
v -0.4015367 0.2318281 -1.555138E-05
v -0.159105 0.2755884 -1.497002E-05
v -0.4372655 0.2524549 0.04024401
v -0.5049095 -3.875732E-07 0.04024401
v -0.5049095 -3.875732E-07 0.2347457
v -0.2318285 0.4015387 -1.555138E-05
v 3.875733E-06 0.3182226 -1.497002E-05
v -0.2524543 0.437264 0.04024401
v -0.4372655 0.2524549 0.2347457
v 2.325439E-06 0.463657 -1.555138E-05
v 0.1591143 0.2755884 -1.497002E-05
v -0.4015383 0.2318294 0.2747204
v -0.4636577 -3.875732E-07 0.2747204
v -0.2318285 0.4015392 0.2747204
v -0.2524543 0.437264 0.2347457
v 2.325439E-06 0.4636577 0.2747204
v 2.325439E-06 0.5049089 0.04024401
v 2.325439E-06 0.5049089 0.2347457
v 0.2318293 0.4015392 0.2747204
v 0.2318293 0.4015387 -1.555138E-05
v 0.2755933 0.1591106 -1.497002E-05
v 0.2524567 0.437264 0.04024401
v 0.2524567 0.437264 0.2347457
v 0.4015414 0.2318289 0.2747204
v 0.4015383 0.2318277 -1.555138E-05
v 0.3182271 -1.550293E-06 -1.497002E-05
v 0.4372655 0.252454 0.04024401
v 0.4372655 0.252454 0.2347457
v 0.4636585 -3.875732E-07 0.2747204
v 0.5049095 -3.875732E-07 0.2347457
v 0.5049095 -3.875732E-07 0.04024401
v 0.4636585 -3.875732E-07 -1.555138E-05
v 0.2755933 -0.1591122 -1.497002E-05
v 0.4015383 -0.2318289 -1.555138E-05
v 0.1591143 -0.2755909 -1.497002E-05
v 0.4015383 -0.2318289 -1.555138E-05
v 0.2318293 -0.4015387 -1.555138E-05
v 3.875733E-06 -0.3182244 -1.497002E-05
v 2.325439E-06 -0.463657 -1.555138E-05
v -0.159105 -0.2755909 -1.497002E-05
v -0.2318285 -0.4015387 -1.555138E-05
v -0.2755855 -0.1591122 -1.497002E-05
v -0.4015367 -0.2318285 -1.555138E-05
v 0.2524567 -0.4372644 0.04024401
v 2.325439E-06 -0.5049087 0.04024401
v -0.2524543 -0.4372644 0.04024401
v -0.4372655 -0.2524543 0.04024401
v 0.4372655 -0.2524547 0.04024401
v 0.4636585 -3.875732E-07 -1.555138E-05
v 0.5049095 -3.875732E-07 0.04024401
v 0.5049095 -3.875732E-07 0.2347457
v 0.4372655 -0.2524547 0.2347457
v 0.2524567 -0.4372644 0.2347457
v 0.4015414 -0.2318293 0.2747204
v 0.4636585 -3.875732E-07 0.2747204
v 0.2318293 -0.4015398 0.2747204
v 2.325439E-06 -0.463657 0.2747204
v 2.325439E-06 -0.5049087 0.2347457
v -0.2318285 -0.4015398 0.2747204
v -0.2524543 -0.437264 0.2347457
v -0.4015383 -0.2318289 0.2747204
v -0.4372655 -0.2524543 0.2347457
v -0.4636577 -3.875732E-07 0.2747204
v -0.5049095 -3.875732E-07 0.2347457
v -0.5049095 -3.875732E-07 0.04024401
v -0.4636577 -3.875732E-07 -1.555138E-05
v 0.2755933 0.1591106 -1.497002E-05
v 0.3146878 -1.550293E-06 0.2732718
v 0.3182271 -1.550293E-06 -1.497002E-05
v 0.2725275 0.157341 0.2732718
v 0.1591143 0.2755884 -1.497002E-05
v 0.1573485 0.2725221 0.2732718
v 3.875733E-06 0.3182226 -1.497002E-05
v 6.976318E-06 0.3146818 0.2732718
v -0.159105 0.2755884 -1.497002E-05
v -0.1573385 0.2725221 0.2732718
v -0.2755855 0.1591106 -1.497002E-05
v -0.2725182 0.157341 0.2732718
v -0.3182178 -1.356506E-06 -1.497002E-05
v -0.3146808 -1.356506E-06 0.2732718
v -0.2755855 -0.1591122 -1.497002E-05
v -0.3146808 -1.356506E-06 0.2732718
v -0.3182178 -1.356506E-06 -1.497002E-05
v -0.2725182 -0.1573427 0.2732718
v -0.159105 -0.2755909 -1.497002E-05
v -0.1573323 -0.2725241 0.2732718
v 3.875733E-06 -0.3182244 -1.497002E-05
v 6.976318E-06 -0.3146835 0.2732718
v 0.1591143 -0.2755909 -1.497002E-05
v 0.1573485 -0.2725241 0.2732718
v 0.2755933 -0.1591122 -1.497002E-05
v 0.2725275 -0.1573427 0.2732718
v 0.3182271 -1.550293E-06 -1.497002E-05
v 0.3146878 -1.550293E-06 0.2732718
vt 0.3007742 0.8383446
vt 0.302021 0.8387657
vt 0.3029125 0.8387657
vt 0.3001691 0.8383446
vt 0.2995849 0.8387657
vt 0.2985158 0.8383446
vt 0.2962573 0.8387657
vt 0.2962573 0.8383446
vt 0.2929296 0.8387657
vt 0.2939988 0.8383446
vt 0.2904936 0.8387657
vt 0.2923456 0.8383446
vt 0.289602 0.8387657
vt 0.2917404 0.8383446
vt 0.2917404 0.8383446
vt 0.2904936 0.8387657
vt 0.289602 0.8387657
vt 0.2923456 0.8383446
vt 0.2929296 0.8387657
vt 0.293999 0.8383446
vt 0.2962573 0.8387657
vt 0.2962573 0.8383446
vt 0.2995849 0.8387657
vt 0.2985158 0.8383446
vt 0.302021 0.8387657
vt 0.3001691 0.8383446
vt 0.3029125 0.8387657
vt 0.3007742 0.8383446
vt 0.2904936 0.7589609
vt 0.2916896 0.7589609
vt 0.289602 0.7589609
vt 0.2923016 0.7589609
vt 0.2904936 0.7589609
vt 0.2939735 0.7589609
vt 0.2899808 0.7706557
vt 0.2890098 0.7706557
vt 0.2890098 0.8271538
vt 0.2929296 0.7589609
vt 0.2962573 0.7589609
vt 0.2926336 0.7706557
vt 0.2899808 0.8271538
vt 0.2962573 0.7589609
vt 0.2985412 0.7589609
vt 0.2904936 0.8387657
vt 0.289602 0.8387657
vt 0.2929296 0.8387657
vt 0.2926336 0.8271538
vt 0.2962573 0.8387657
vt 0.2962573 0.7706557
vt 0.2962573 0.8271538
vt 0.2995849 0.8387657
vt 0.2995849 0.7589609
vt 0.3002131 0.7589609
vt 0.299881 0.7706557
vt 0.299881 0.8271538
vt 0.302021 0.8387657
vt 0.3020209 0.7589609
vt 0.3008251 0.7589609
vt 0.3025337 0.7706557
vt 0.3025337 0.8271538
vt 0.3029125 0.8387657
vt 0.3035047 0.8271538
vt 0.3035047 0.7706557
vt 0.3029125 0.7589609
vt 0.3002131 0.7589609
vt 0.3020209 0.7589609
vt 0.2985412 0.7589609
vt 0.3020209 0.7589609
vt 0.2995849 0.7589609
vt 0.2962573 0.7589609
vt 0.2962573 0.7589609
vt 0.2939735 0.7589609
vt 0.2929296 0.7589609
vt 0.2923016 0.7589609
vt 0.2904936 0.7589609
vt 0.299881 0.7706557
vt 0.2962573 0.7706557
vt 0.2926336 0.7706557
vt 0.2899808 0.7706557
vt 0.3025337 0.7706557
vt 0.3029125 0.7589609
vt 0.3035047 0.7706557
vt 0.3035047 0.8271538
vt 0.3025337 0.8271538
vt 0.299881 0.8271538
vt 0.302021 0.8387657
vt 0.3029125 0.8387657
vt 0.2995849 0.8387657
vt 0.2962573 0.8387657
vt 0.2962573 0.8271538
vt 0.2929296 0.8387657
vt 0.2926336 0.8271538
vt 0.2904936 0.8387657
vt 0.2899808 0.8271538
vt 0.289602 0.8387657
vt 0.2890098 0.8271538
vt 0.2890098 0.7706557
vt 0.289602 0.7589609
vt 0.3002131 0.7589609
vt 0.3007742 0.8383446
vt 0.3008251 0.7589609
vt 0.3001691 0.8383446
vt 0.2985412 0.7589609
vt 0.2985158 0.8383446
vt 0.2962573 0.7589609
vt 0.2962573 0.8383446
vt 0.2939735 0.7589609
vt 0.2939988 0.8383446
vt 0.2923016 0.7589609
vt 0.2923456 0.8383446
vt 0.2916896 0.7589609
vt 0.2917404 0.8383446
vt 0.2923016 0.7589609
vt 0.2917404 0.8383446
vt 0.2916896 0.7589609
vt 0.2923456 0.8383446
vt 0.2939735 0.7589609
vt 0.293999 0.8383446
vt 0.2962573 0.7589609
vt 0.2962573 0.8383446
vt 0.2985412 0.7589609
vt 0.2985158 0.8383446
vt 0.3002131 0.7589609
vt 0.3001691 0.8383446
vt 0.3008251 0.7589609
vt 0.3007742 0.8383446
vn -0.009723275 0 0.9999528
vn 0.3661953 0.2114212 0.906202
vn 0.4228418 2.700858E-07 0.9062035
vn -0.008420517 -0.004861587 0.9999528
vn 0.2114142 0.366187 0.906207
vn -0.004861725 -0.00842044 0.9999528
vn 1.234584E-06 0.4228416 0.9062037
vn 0 -0.009722964 0.9999528
vn -0.211418 0.3661904 0.9062047
vn 0.004861391 -0.008420271 0.9999528
vn -0.3661792 0.2114151 0.9062099
vn 0.008420182 -0.004861421 0.9999528
vn -0.422838 1.407357E-06 0.9062052
vn 0.009722854 0 0.9999528
vn 0.009722854 0 0.9999528
vn -0.3661774 -0.2114173 0.9062102
vn -0.422838 1.407357E-06 0.9062052
vn 0.008420086 0.004861538 0.9999528
vn -0.211421 -0.3661934 0.9062028
vn 0.004861171 0.008420303 0.9999528
vn 1.149848E-06 -0.4228371 0.9062058
vn 0 0.009723113 0.9999528
vn 0.2114158 -0.3661883 0.9062061
vn -0.004861675 0.008420518 0.9999528
vn 0.3661941 -0.2114223 0.9062023
vn -0.008420582 0.004861536 0.9999528
vn 0.4228418 2.700858E-07 0.9062035
vn -0.009723275 0 0.9999528
vn -0.3709056 -0.2141436 -0.9036434
vn 3.997272E-06 0 -1
vn -0.428306 -3.528961E-06 -0.9036338
vn 3.46178E-06 -1.99871E-06 -1
vn -0.3709007 0.2141458 -0.9036449
vn 1.998654E-06 -3.461795E-06 -1
vn -0.8055537 0.4650885 -0.3671185
vn -0.9301802 -2.58299E-06 -0.3671032
vn -0.9295965 4.609903E-07 0.3685789
vn -0.2141535 0.3709223 -0.9036343
vn 0 -3.997394E-06 -1
vn -0.4650881 0.8055605 -0.3671041
vn -0.8050526 0.4647956 0.3685856
vn 5.925683E-07 0.428304 -0.9036347
vn -1.99872E-06 -3.46187E-06 -1
vn -0.3661792 0.2114151 0.9062099
vn -0.422838 1.407357E-06 0.9062052
vn -0.211418 0.3661904 0.9062047
vn -0.4647958 0.8050566 0.3685765
vn 1.234584E-06 0.4228416 0.9062037
vn 1.013819E-06 0.9301804 -0.3671026
vn 1.4167E-06 0.9295979 0.3685752
vn 0.2114142 0.366187 0.906207
vn 0.2141492 0.3709184 -0.9036368
vn -3.461955E-06 -1.998734E-06 -1
vn 0.4650919 0.8055573 -0.3671063
vn 0.4647995 0.8050532 0.3685795
vn 0.3661953 0.2114212 0.906202
vn 0.3709126 0.2141455 -0.9036402
vn -3.997495E-06 0 -1
vn 0.8055587 0.4650849 -0.367112
vn 0.8050582 0.4647966 0.3685721
vn 0.4228418 2.700858E-07 0.9062035
vn 0.9295985 0 0.3685741
vn 0.9301819 1.617612E-06 -0.3670991
vn 0.4283104 2.645404E-06 -0.9036317
vn -3.46195E-06 1.998764E-06 -1
vn 0.370911 -0.2141491 -0.90364
vn -1.998751E-06 3.461922E-06 -1
vn 0.370911 -0.2141491 -0.90364
vn 0.2141476 -0.3709174 -0.9036377
vn 0 3.997455E-06 -1
vn 1.513166E-06 -0.4283052 -0.9036341
vn 1.998635E-06 3.461856E-06 -1
vn -0.2141504 -0.3709206 -0.9036357
vn 3.46183E-06 1.998671E-06 -1
vn -0.3709056 -0.2141436 -0.9036434
vn 0.4650899 -0.8055575 -0.3671083
vn 1.579E-06 -0.9301806 -0.3671022
vn -0.4650871 -0.8055612 -0.3671035
vn -0.8055564 -0.4650851 -0.3671168
vn 0.8055584 -0.465087 -0.36711
vn 0.4283104 2.645404E-06 -0.9036317
vn 0.9301819 1.617612E-06 -0.3670991
vn 0.9295985 0 0.3685741
vn 0.8050568 -0.4647978 0.3685735
vn 0.4647993 -0.8050533 0.3685794
vn 0.3661941 -0.2114223 0.9062023
vn 0.4228418 2.700858E-07 0.9062035
vn 0.2114158 -0.3661883 0.9062061
vn 1.149848E-06 -0.4228371 0.9062058
vn 1.152475E-06 -0.9295969 0.3685778
vn -0.211421 -0.3661934 0.9062028
vn -0.4647975 -0.8050562 0.3685754
vn -0.3661774 -0.2114173 0.9062102
vn -0.8050519 -0.4647971 0.3685854
vn -0.422838 1.407357E-06 0.9062052
vn -0.9295965 4.609903E-07 0.3685789
vn -0.9301802 -2.58299E-06 -0.3671032
vn -0.428306 -3.528961E-06 -0.9036338
vn -0.8659516 -0.4999603 -0.01295096
vn -0.9999162 1.65621E-06 -0.01295053
vn -0.9999162 1.737107E-06 -0.01295047
vn -0.8659532 -0.4999574 -0.01294872
vn -0.4999578 -0.8659529 -0.01294928
vn -0.4999649 -0.8659489 -0.01294712
vn 3.690743E-06 -0.9999161 -0.01295479
vn -2.832212E-06 -0.9999161 -0.01295303
vn 0.4999524 -0.8659561 -0.01295027
vn 0.4999573 -0.8659532 -0.01295139
vn 0.8659541 -0.4999558 -0.01295299
vn 0.8659521 -0.4999593 -0.01295119
vn 0.9999162 -3.572623E-06 -0.01294666
vn 0.9999162 -3.694637E-06 -0.01294664
vn 0.8659511 0.4999611 -0.01295093
vn 0.9999162 -3.694637E-06 -0.01294664
vn 0.9999162 -3.572623E-06 -0.01294666
vn 0.8659438 0.4999733 -0.01295878
vn 0.4999548 0.8659546 -0.01295841
vn 0.4999495 0.8659576 -0.01296077
vn 3.257693E-06 0.9999161 -0.01295573
vn 0 0.9999161 -0.01295548
vn -0.4999553 0.8659545 -0.01294827
vn -0.4999627 0.86595 -0.01295046
vn -0.8659533 0.4999573 -0.01294906
vn -0.8659543 0.4999555 -0.01295066
vn -0.9999162 1.737107E-06 -0.01295047
vn -0.9999162 1.65621E-06 -0.01295053
g SM_Helena_CargoTear_0
f 3/3/3 2/2/2 1/1/1
f 4/4/4 1/1/1 2/2/2
f 2/2/2 5/5/5 4/4/4
f 6/6/6 4/4/4 5/5/5
f 5/5/5 7/7/7 6/6/6
f 8/8/8 6/6/6 7/7/7
f 7/7/7 9/9/9 8/8/8
f 10/10/10 8/8/8 9/9/9
f 9/9/9 11/11/11 10/10/10
f 12/12/12 10/10/10 11/11/11
f 11/11/11 13/13/13 12/12/12
f 14/14/14 12/12/12 13/13/13
f 17/17/17 16/16/16 15/15/15
f 18/18/18 15/15/15 16/16/16
f 16/16/16 19/19/19 18/18/18
f 20/20/20 18/18/18 19/19/19
f 19/19/19 21/21/21 20/20/20
f 22/22/22 20/20/20 21/21/21
f 21/21/21 23/23/23 22/22/22
f 24/24/24 22/22/22 23/23/23
f 23/23/23 25/25/25 24/24/24
f 26/26/26 24/24/24 25/25/25
f 25/25/25 27/27/27 26/26/26
f 28/28/28 26/26/26 27/27/27
f 31/31/31 30/30/30 29/29/29
f 30/30/30 31/31/31 32/32/32
f 33/33/33 32/32/32 31/31/31
f 32/32/32 33/33/33 34/34/34
f 33/33/33 31/31/31 35/35/35
f 36/36/36 35/35/35 31/31/31
f 36/36/36 37/37/37 35/35/35
f 38/38/38 34/34/34 33/33/33
f 34/34/34 38/38/38 39/39/39
f 35/35/35 40/40/40 33/33/33
f 38/38/38 33/33/33 40/40/40
f 41/41/41 35/35/35 37/37/37
f 35/35/35 41/41/41 40/40/40
f 42/42/42 39/39/39 38/38/38
f 39/39/39 42/42/42 43/43/43
f 41/41/41 37/37/37 44/44/44
f 45/45/45 44/44/44 37/37/37
f 44/44/44 46/46/46 41/41/41
f 47/47/47 41/41/41 46/46/46
f 47/47/47 40/40/40 41/41/41
f 46/46/46 48/48/48 47/47/47
f 40/40/40 49/49/49 38/38/38
f 40/40/40 47/47/47 49/49/49
f 42/42/42 38/38/38 49/49/49
f 50/50/50 47/47/47 48/48/48
f 50/50/50 49/49/49 47/47/47
f 48/48/48 51/51/51 50/50/50
f 52/52/52 43/43/43 42/42/42
f 43/43/43 52/52/52 53/53/53
f 49/49/49 54/54/54 42/42/42
f 49/49/49 50/50/50 54/54/54
f 52/52/52 42/42/42 54/54/54
f 55/55/55 50/50/50 51/51/51
f 55/55/55 54/54/54 50/50/50
f 51/51/51 56/56/56 55/55/55
f 57/57/57 53/53/53 52/52/52
f 53/53/53 57/57/57 58/58/58
f 54/54/54 59/59/59 52/52/52
f 54/54/54 55/55/55 59/59/59
f 57/57/57 52/52/52 59/59/59
f 60/60/60 55/55/55 56/56/56
f 60/60/60 59/59/59 55/55/55
f 56/56/56 61/61/61 60/60/60
f 62/62/62 60/60/60 61/61/61
f 62/62/62 63/63/63 60/60/60
f 59/59/59 60/60/60 63/63/63
f 59/59/59 63/63/63 57/57/57
f 64/64/64 57/57/57 63/63/63
f 64/64/64 58/58/58 57/57/57
f 58/58/58 64/64/64 65/65/65
f 66/66/66 65/65/65 64/64/64
f 65/65/65 68/68/68 67/67/67
f 69/69/69 67/67/67 68/68/68
f 67/67/67 69/69/69 70/70/70
f 71/71/71 70/70/70 69/69/69
f 70/70/70 71/71/71 72/72/72
f 73/73/73 72/72/72 71/71/71
f 72/72/72 73/73/73 74/74/74
f 75/75/75 74/74/74 73/73/73
f 74/74/74 75/75/75 30/30/30
f 69/69/69 68/68/68 76/76/76
f 71/71/71 69/69/69 77/77/77
f 76/76/76 77/77/77 69/69/69
f 73/73/73 71/71/71 78/78/78
f 77/77/77 78/78/78 71/71/71
f 75/75/75 73/73/73 79/79/79
f 78/78/78 79/79/79 73/73/73
f 80/80/80 76/76/76 68/68/68
f 68/68/68 81/81/81 80/80/80
f 82/82/82 80/80/80 81/81/81
f 82/82/82 83/83/83 80/80/80
f 80/80/80 84/84/84 76/76/76
f 84/84/84 80/80/80 83/83/83
f 76/76/76 85/85/85 77/77/77
f 85/85/85 76/76/76 84/84/84
f 84/84/84 83/83/83 86/86/86
f 87/87/87 86/86/86 83/83/83
f 86/86/86 88/88/88 84/84/84
f 85/85/85 84/84/84 88/88/88
f 88/88/88 89/89/89 85/85/85
f 90/90/90 77/77/77 85/85/85
f 90/90/90 85/85/85 89/89/89
f 77/77/77 90/90/90 78/78/78
f 89/89/89 91/91/91 90/90/90
f 92/92/92 78/78/78 90/90/90
f 92/92/92 90/90/90 91/91/91
f 91/91/91 93/93/93 92/92/92
f 78/78/78 92/92/92 79/79/79
f 94/94/94 92/92/92 93/93/93
f 94/94/94 79/79/79 92/92/92
f 93/93/93 95/95/95 94/94/94
f 96/96/96 94/94/94 95/95/95
f 96/96/96 97/97/97 94/94/94
f 79/79/79 94/94/94 97/97/97
f 79/79/79 97/97/97 75/75/75
f 98/98/98 75/75/75 97/97/97
f 101/101/101 100/100/100 99/99/99
f 102/102/102 99/99/99 100/100/100
f 99/99/99 102/102/102 103/103/103
f 104/104/104 103/103/103 102/102/102
f 103/103/103 104/104/104 105/105/105
f 106/106/106 105/105/105 104/104/104
f 105/105/105 106/106/106 107/107/107
f 108/108/108 107/107/107 106/106/106
f 107/107/107 108/108/108 109/109/109
f 110/110/110 109/109/109 108/108/108
f 109/109/109 110/110/110 111/111/111
f 112/112/112 111/111/111 110/110/110
f 115/115/115 114/114/114 113/113/113
f 116/116/116 113/113/113 114/114/114
f 113/113/113 116/116/116 117/117/117
f 118/118/118 117/117/117 116/116/116
f 117/117/117 118/118/118 119/119/119
f 120/120/120 119/119/119 118/118/118
f 119/119/119 120/120/120 121/121/121
f 122/122/122 121/121/121 120/120/120
f 121/121/121 122/122/122 123/123/123
f 124/124/124 123/123/123 122/122/122
f 123/123/123 124/124/124 125/125/125
f 126/126/126 125/125/125 124/124/124
