g Hut_Roof1_Broken
v -0.1854404 0.4120148 -1
v 0.3099579 0.2958044 -0.3567666
v -0.1822813 0.3646707 -0.9999999
v -0.1822813 0.3646707 -0.9999999
v 0.3099579 0.2958044 -0.3567666
v 0.3468631 0.2405441 -0.3061841
v 1.372288 0 1
v 1.38265 0.04417236 1
v 1.372288 0 -1
v 1.38265 0.04417236 -1
v 0.2961288 0.2990482 1
v 1.38265 0.04417236 1
v 0.3254749 0.2455615 1
v 1.372288 0 1
v -0.1854404 0.4120148 -1
v 1.38265 0.04417236 -1
v 0.3099579 0.2958044 -0.3567666
v 1.38265 0.04417236 1
v 0.1764005 0.3271341 0.2443489
v 0.2961288 0.2990482 1
v 1.372288 0 -1
v 1.38265 0.04417236 -1
v -0.1822813 0.3646707 -0.9999999
v -0.1854404 0.4120148 -1
v -0.1822813 0.3646707 -0.9999999
v 0.3468631 0.2405441 -0.3061841
v 1.372288 0 -1
v 1.372288 0 1
v 0.2418039 0.2651889 0.3744248
v 0.3254749 0.2455615 1
v 0.3099579 0.2958044 -0.3567666
v 0.1764005 0.3271341 0.2443489
v 0.3468631 0.2405441 -0.3061841
v 0.2418039 0.2651889 0.3744248
v 0.2961288 0.2990482 1
v 0.3254749 0.2455615 1
vt 0.640229 0.7090551
vt 0.6593794 0.7287327
vt 0.6402291 0.7092175
vt 0.6402291 0.7092175
vt 0.6593794 0.7287327
vt 0.6608853 0.7302357
vt 0.699773 0.7709666
vt 0.699773 0.7713411
vt 0.6402291 0.7709666
vt 0.6402291 0.7713411
vt 0.699773 0.7281834
vt 0.699773 0.7713411
vt 0.699773 0.7293862
vt 0.699773 0.7709666
vt 0.640229 0.7090551
vt 0.6402291 0.7713411
vt 0.6593794 0.7287327
vt 0.699773 0.7713411
vt 0.6772758 0.7234277
vt 0.699773 0.7281834
vt 0.6402291 0.7709666
vt 0.6402291 0.7713411
vt 0.6402291 0.7092175
vt 0.640229 0.7090551
vt 0.6402291 0.7092175
vt 0.6608853 0.7302357
vt 0.6402291 0.7709666
vt 0.699773 0.7709666
vt 0.6811484 0.7260627
vt 0.699773 0.7293862
vt 0.6593794 0.7287327
vt 0.6772758 0.7234277
vt 0.6608853 0.7302357
vt 0.6811484 0.7260627
vt 0.699773 0.7281834
vt 0.699773 0.7293862
vn -0.7957618 -0.05309609 0.6032777
vn -0.8847697 -0.2123756 0.4148241
vn -0.7957333 -0.05031911 0.6035533
vn -0.7957333 -0.05031911 0.6035533
vn -0.8847697 -0.2123756 0.4148241
vn -0.8193457 -0.5731544 0.01291169
vn 0.9735721 -0.2283797 0
vn 0.9735721 -0.2283797 0
vn 0.9735721 -0.2283797 0
vn 0.9735721 -0.2283797 0
vn 0 0 1
vn 0 0 1
vn 0 0 1
vn 0 0 1
vn 0.2283805 0.973572 -2.356506E-07
vn 0.2283806 0.9735719 0
vn 0.2283805 0.973572 0
vn 0.2283805 0.973572 0
vn 0.2283802 0.973572 2.540182E-07
vn 0.2283803 0.973572 1.158001E-07
vn 0 0 -1
vn 0 0 -1
vn -6.580917E-07 -1.612253E-06 -1
vn -6.681674E-07 -1.637104E-06 -1
vn -0.2283805 -0.973572 1.322225E-07
vn -0.2283805 -0.9735719 0
vn -0.2283805 -0.9735719 0
vn -0.2283806 -0.9735719 0
vn -0.2283806 -0.9735719 0
vn -0.2283807 -0.9735719 2.903685E-07
vn -0.8847697 -0.2123756 0.4148241
vn -0.644145 -0.7635045 -0.04624031
vn -0.8193457 -0.5731544 0.01291169
vn -0.7445518 -0.6652524 0.05551336
vn -0.8646346 -0.4919972 0.1017142
vn -0.8721709 -0.4785263 0.1016395
g Hut_Roof1_Broken_0
f 3/3/3 2/2/2 1/1/1
f 6/6/6 5/5/5 4/4/4
f 9/9/9 8/8/8 7/7/7
f 9/9/9 10/10/10 8/8/8
f 13/13/13 12/12/12 11/11/11
f 13/13/13 14/14/14 12/12/12
f 17/17/17 16/16/16 15/15/15
f 17/17/17 18/18/18 16/16/16
f 19/19/19 18/18/18 17/17/17
f 19/19/19 20/20/20 18/18/18
f 23/23/23 22/22/22 21/21/21
f 23/23/23 24/24/24 22/22/22
f 27/27/27 26/26/26 25/25/25
f 28/28/28 26/26/26 27/27/27
f 28/28/28 29/29/29 26/26/26
f 30/30/30 29/29/29 28/28/28
f 33/33/33 32/32/32 31/31/31
f 34/34/34 32/32/32 33/33/33
f 34/34/34 35/35/35 32/32/32
f 36/36/36 35/35/35 34/34/34
