g SH_Bed_Log004
v -0.05433787 0.07267087 -0.4338878
v -0.08162598 0.1003769 -1.301664
v 0.04963142 0.1003769 -1.301664
v 0.07250144 0.0726709 -0.4338881
v -0.04345045 0.132072 0.433888
v 0.08162607 0.132072 0.4338878
v -0.04828915 0.2423103 1.301664
v 0.07757075 0.2423103 1.301664
v 0.07250144 0.0726709 -0.4338881
v 0.04963142 0.1003769 -1.301664
v 0.04963142 -0.07267087 -1.301664
v 0.07250144 -0.1003768 -0.4338878
v 0.08162607 0.132072 0.4338878
v 0.08162607 -0.04097575 0.4338878
v 0.07757075 0.2423103 1.301664
v 0.0775707 0.06926265 1.301664
v -0.04345045 0.132072 0.433888
v -0.04828915 0.2423103 1.301664
v -0.0482892 0.06926265 1.301664
v -0.04345045 -0.0409757 0.433888
v -0.05433787 0.07267087 -0.4338878
v -0.05433787 -0.1003768 -0.4338876
v -0.08162598 0.1003769 -1.301664
v -0.08162598 -0.07267084 -1.301664
v 0.07250144 -0.1003768 -0.4338878
v 0.04963142 -0.07267087 -1.301664
v -0.08162598 -0.07267084 -1.301664
v -0.05433787 -0.1003768 -0.4338876
v 0.08162607 -0.04097575 0.4338878
v -0.04345045 -0.0409757 0.433888
v 0.0775707 0.06926265 1.301664
v -0.0482892 0.06926265 1.301664
v 0.07757075 0.2423103 1.301664
v 0.0775707 0.06926265 1.301664
v -0.0482892 0.06926265 1.301664
v -0.04828915 0.2423103 1.301664
v -0.08162598 0.1003769 -1.301664
v -0.08162598 -0.07267084 -1.301664
v 0.04963142 -0.07267087 -1.301664
v 0.04963142 0.1003769 -1.301664
v 0.05937205 0.04660514 0.03748243
v 0.1398777 0.04660518 0.0374826
v 0.1396839 0.05823919 0.1456414
v 0.05956579 0.05823922 0.1456417
v 0.05937205 0.04660514 0.03748243
v 0.05937205 -0.03433794 0.03748243
v 0.1398777 -0.03433783 0.03748267
v 0.1398777 0.04660518 0.0374826
v 0.1396839 0.05823919 0.1456414
v 0.1396839 -0.02270381 0.1456413
v 0.05956584 -0.02270375 0.1456417
v 0.05956579 0.05823922 0.1456417
v 0.1398777 -0.03433783 0.03748267
v 0.05937205 -0.03433794 0.03748243
v 0.05956584 -0.02270375 0.1456417
v 0.1396839 -0.02270381 0.1456413
v 0.1398777 0.04660518 0.0374826
v 0.1398777 -0.03433783 0.03748267
v 0.1396839 -0.02270381 0.1456413
v 0.1396839 0.05823919 0.1456414
v 0.05937215 0.1600586 0.921845
v 0.1398778 0.1600586 0.9218452
v 0.139684 0.1716926 1.030004
v 0.05956594 0.1716926 1.030004
v 0.05937215 0.1600586 0.921845
v 0.05937215 0.07911547 0.921845
v 0.1398778 0.07911557 0.9218452
v 0.1398778 0.1600586 0.9218452
v 0.139684 0.1716926 1.030004
v 0.139684 0.0907496 1.030004
v 0.05956598 0.09074967 1.030004
v 0.05956594 0.1716926 1.030004
v 0.1398778 0.07911557 0.9218452
v 0.05937215 0.07911547 0.921845
v 0.05956598 0.09074967 1.030004
v 0.139684 0.0907496 1.030004
v 0.1398778 0.1600586 0.9218452
v 0.1398778 0.07911557 0.9218452
v 0.139684 0.0907496 1.030004
v 0.139684 0.1716926 1.030004
vt 0.1888364 0.9201547
vt 0.1888364 0.9201547
vt 0.2178075 0.9201547
vt 0.2178075 0.9201547
vt 0.1888364 0.9201547
vt 0.2178075 0.9201547
vt 0.1888364 0.9201547
vt 0.2178075 0.9201547
vt 0.2519228 0.9697855
vt 0.2519228 0.9697855
vt 0.2811235 0.9697855
vt 0.2811235 0.9697855
vt 0.2519228 0.9697855
vt 0.2811235 0.9697855
vt 0.2519228 0.9697855
vt 0.2811235 0.9697855
vt 0.2519228 0.9697855
vt 0.2519228 0.9697855
vt 0.2811235 0.9697855
vt 0.2811235 0.9697855
vt 0.2519228 0.9697855
vt 0.2811235 0.9697855
vt 0.2519228 0.9697855
vt 0.2811235 0.9697855
vt 0.2495302 0.928511
vt 0.2495302 0.928511
vt 0.2205591 0.928511
vt 0.2205591 0.928511
vt 0.2495302 0.928511
vt 0.2205591 0.928511
vt 0.2495302 0.928511
vt 0.2205591 0.928511
vt 0.2520247 0.9989129
vt 0.2814005 0.9989129
vt 0.2814005 0.9871104
vt 0.2520247 0.9871104
vt 0.2520247 0.9871104
vt 0.2814005 0.9871104
vt 0.2814005 0.9989129
vt 0.2520247 0.9989129
vt 0.4577524 0.9870662
vt 0.4577525 0.8747122
vt 0.4281617 0.8747122
vt 0.4281617 0.9870662
vt 0.2514699 0.9680895
vt 0.2225615 0.9680895
vt 0.2225615 0.8752663
vt 0.2514699 0.8752663
vt 0.2514699 0.8752663
vt 0.2225615 0.8752663
vt 0.2225615 0.9680895
vt 0.2514699 0.9680895
vt 0.4269564 0.8747122
vt 0.4269564 0.9870662
vt 0.3973656 0.9870662
vt 0.3973656 0.8747122
vt 0.2814639 0.9991292
vt 0.2814639 0.9873734
vt 0.2522648 0.9873734
vt 0.2522648 0.9991292
vt 0.4577524 0.9870662
vt 0.4577525 0.8747122
vt 0.4281617 0.8747122
vt 0.4281617 0.9870662
vt 0.2514699 0.9680895
vt 0.2225615 0.9680895
vt 0.2225615 0.8752663
vt 0.2514699 0.8752663
vt 0.2514699 0.8752663
vt 0.2225615 0.8752663
vt 0.2225615 0.9680895
vt 0.2514699 0.9680895
vt 0.4269564 0.8747122
vt 0.4269564 0.9870662
vt 0.3973656 0.9870662
vt 0.3973656 0.8747122
vt 0.2814639 0.9991292
vt 0.2814639 0.9873734
vt 0.2522648 0.9873734
vt 0.2522648 0.9991292
vn 0 0.9998686 0.01620831
vn 0 0.9994841 0.03211676
vn 0 0.9994841 0.03211676
vn 0 0.9998758 0.01575848
vn 0 0.9998734 -0.01590853
vn 0 0.9998735 -0.01590793
vn 0 0.9994842 -0.03211556
vn 0 0.9994842 -0.03211556
vn 0.9998957 0 -0.01444706
vn 0.9997916 0 -0.02041473
vn 0.9997916 0 -0.02041473
vn 0.9998976 0 -0.01431455
vn 0.9999977 0 -0.002120324
vn 0.9999977 0 -0.002120324
vn 0.9999932 0 0.00371055
vn 0.9999931 0 0.003711041
vn -0.9999965 0 0.002650753
vn -0.9999899 0 -0.00450625
vn -0.9999899 0 -0.00450625
vn -0.9999958 0 0.002915826
vn -0.9998516 0 0.01722968
vn -0.9998538 0 0.01709718
vn -0.9996961 0 0.02465113
vn -0.9996961 0 0.02465113
vn 0 -0.9998758 -0.01575789
vn 0 -0.9994841 -0.03211676
vn 0 -0.9994842 -0.03211556
vn 0 -0.9998686 -0.016208
vn 0 -0.9998686 0.01620831
vn 0 -0.9998735 0.01590823
vn 0 -0.9994841 0.03211676
vn 0 -0.9994841 0.03211676
vn 0 0 1
vn 0 0 1
vn 0 0 1
vn 0 0 1
vn 0 0 -1
vn 0 0 -1
vn 0 0 -1
vn 0 0 -1
vn 0 0.9989825 -0.04509876
vn 0 0.9989825 -0.04509876
vn 0 0.9989825 -0.04509876
vn 0 0.9989825 -0.04509876
vn 0 0 -1
vn 0 0 -1
vn 0 0 -1
vn 0 0 -1
vn 0 0 1
vn 0 0 1
vn 0 0 1
vn 0 0 1
vn 0 -0.9989825 0.04509876
vn 0 -0.9989825 0.04509876
vn 0 -0.9989825 0.04509876
vn 0 -0.9989825 0.04509876
vn 0.9999996 0 0.0009277664
vn 0.9999996 0 0.0009277664
vn 0.9999996 0 0.0009276435
vn 0.9999996 0 0.0009276435
vn 0 0.9942647 -0.1069472
vn 0 0.9942647 -0.1069472
vn 0 0.9942647 -0.1069472
vn 0 0.9942647 -0.1069472
vn 2.407117E-06 0 -1
vn 2.407117E-06 0 -1
vn 2.407117E-06 0 -1
vn 2.407117E-06 0 -1
vn 5.442218E-06 -5.985267E-07 1
vn 5.442218E-06 -5.985266E-07 1
vn 5.442218E-06 -5.985267E-07 1
vn 5.442218E-06 -5.985266E-07 1
vn 4.566627E-07 -0.9942647 0.1069481
vn 4.566627E-07 -0.9942647 0.1069481
vn 4.566626E-07 -0.9942647 0.1069481
vn 4.566626E-07 -0.9942647 0.1069481
vn 0.9999985 0 0.001792134
vn 0.9999985 0 0.001792134
vn 0.9999985 0 0.001792134
vn 0.9999985 0 0.001792134
g SH_Bed_Log004_0
f 3/3/3 2/2/2 1/1/1
f 4/4/4 3/3/3 1/1/1
f 4/4/4 1/1/1 5/5/5
f 6/6/6 4/4/4 5/5/5
f 5/5/5 7/7/7 6/6/6
f 7/7/7 8/8/8 6/6/6
f 11/11/11 10/10/10 9/9/9
f 12/12/12 11/11/11 9/9/9
f 12/12/12 9/9/9 13/13/13
f 14/14/14 12/12/12 13/13/13
f 13/13/13 15/15/15 14/14/14
f 15/15/15 16/16/16 14/14/14
f 19/19/19 18/18/18 17/17/17
f 20/20/20 19/19/19 17/17/17
f 20/20/20 17/17/17 21/21/21
f 22/22/22 20/20/20 21/21/21
f 21/21/21 23/23/23 22/22/22
f 23/23/23 24/24/24 22/22/22
f 27/27/27 26/26/26 25/25/25
f 28/28/28 27/27/27 25/25/25
f 28/28/28 25/25/25 29/29/29
f 30/30/30 28/28/28 29/29/29
f 29/29/29 31/31/31 30/30/30
f 31/31/31 32/32/32 30/30/30
f 35/35/35 34/34/34 33/33/33
f 36/36/36 35/35/35 33/33/33
f 39/39/39 38/38/38 37/37/37
f 40/40/40 39/39/39 37/37/37
f 43/43/43 42/42/42 41/41/41
f 44/44/44 43/43/43 41/41/41
f 47/47/47 46/46/46 45/45/45
f 48/48/48 47/47/47 45/45/45
f 51/51/51 50/50/50 49/49/49
f 52/52/52 51/51/51 49/49/49
f 55/55/55 54/54/54 53/53/53
f 56/56/56 55/55/55 53/53/53
f 59/59/59 58/58/58 57/57/57
f 60/60/60 59/59/59 57/57/57
f 63/63/63 62/62/62 61/61/61
f 64/64/64 63/63/63 61/61/61
f 67/67/67 66/66/66 65/65/65
f 68/68/68 67/67/67 65/65/65
f 71/71/71 70/70/70 69/69/69
f 72/72/72 71/71/71 69/69/69
f 75/75/75 74/74/74 73/73/73
f 76/76/76 75/75/75 73/73/73
f 79/79/79 78/78/78 77/77/77
f 80/80/80 79/79/79 77/77/77
