g SM_Box
v 0.24726 0.1427401 -0.39
v 0.24726 0.1427401 -0.3385199
v -0.24726 0.1427401 -0.3385199
v -0.24726 0.1427401 -0.39
v -0.24726 0.1427401 -0.39
v -0.24726 0.1427401 -0.3385199
v -0.24726 0.63726 -0.3385198
v -0.24726 0.63726 -0.3899999
v -0.24726 0.63726 -0.3899999
v -0.24726 0.63726 -0.3385198
v 0.24726 0.63726 -0.3385198
v 0.24726 0.63726 -0.3899999
v 0.24726 0.63726 -0.3899999
v 0.24726 0.63726 -0.3385198
v 0.24726 0.1427401 -0.3385199
v 0.24726 0.1427401 -0.39
v -0.24726 0.1427401 -0.3385199
v 0.24726 0.1427401 -0.3385199
v 0.24726 0.63726 -0.3385198
v -0.24726 0.63726 -0.3385198
v -0.39 0.1427401 -0.24726
v -0.33852 0.1427401 -0.24726
v -0.33852 0.14274 0.24726
v -0.39 0.14274 0.24726
v -0.39 0.14274 0.24726
v -0.33852 0.14274 0.24726
v -0.33852 0.63726 0.2472601
v -0.39 0.63726 0.2472601
v -0.39 0.63726 0.2472601
v -0.33852 0.63726 0.2472601
v -0.33852 0.63726 -0.2472599
v -0.39 0.63726 -0.2472599
v -0.39 0.63726 -0.2472599
v -0.33852 0.63726 -0.2472599
v -0.33852 0.1427401 -0.24726
v -0.39 0.1427401 -0.24726
v -0.33852 0.14274 0.24726
v -0.33852 0.1427401 -0.24726
v -0.33852 0.63726 -0.2472599
v -0.33852 0.63726 0.2472601
v -0.24726 0.78 -0.2472599
v -0.24726 0.7285199 -0.2472599
v -0.24726 0.7285199 0.2472601
v -0.24726 0.78 0.2472601
v -0.24726 0.78 0.2472601
v -0.24726 0.7285199 0.2472601
v 0.24726 0.7285199 0.2472601
v 0.24726 0.78 0.2472601
v 0.24726 0.78 0.2472601
v 0.24726 0.7285199 0.2472601
v 0.24726 0.7285199 -0.2472599
v 0.24726 0.78 -0.2472599
v 0.24726 0.78 -0.2472599
v 0.24726 0.7285199 -0.2472599
v -0.24726 0.7285199 -0.2472599
v -0.24726 0.78 -0.2472599
v -0.24726 0.7285199 0.2472601
v -0.24726 0.7285199 -0.2472599
v 0.24726 0.7285199 -0.2472599
v 0.24726 0.7285199 0.2472601
v 0.39 0.63726 -0.2472599
v 0.33852 0.63726 -0.2472599
v 0.33852 0.63726 0.2472601
v 0.39 0.63726 0.2472601
v 0.39 0.63726 0.2472601
v 0.33852 0.63726 0.2472601
v 0.33852 0.14274 0.24726
v 0.39 0.14274 0.24726
v 0.39 0.14274 0.24726
v 0.33852 0.14274 0.24726
v 0.33852 0.1427401 -0.24726
v 0.39 0.1427401 -0.24726
v 0.39 0.1427401 -0.24726
v 0.33852 0.1427401 -0.24726
v 0.33852 0.63726 -0.2472599
v 0.39 0.63726 -0.2472599
v 0.33852 0.63726 0.2472601
v 0.33852 0.63726 -0.2472599
v 0.33852 0.1427401 -0.24726
v 0.33852 0.14274 0.24726
v -0.24726 0.63726 0.3900001
v -0.24726 0.63726 0.3385201
v -0.24726 0.14274 0.33852
v -0.24726 0.14274 0.39
v -0.24726 0.14274 0.39
v -0.24726 0.14274 0.33852
v 0.24726 0.14274 0.33852
v 0.24726 0.14274 0.39
v 0.24726 0.14274 0.39
v 0.24726 0.14274 0.33852
v 0.24726 0.63726 0.3385201
v 0.24726 0.63726 0.3900001
v 0.24726 0.63726 0.3900001
v 0.24726 0.63726 0.3385201
v -0.24726 0.63726 0.3385201
v -0.24726 0.63726 0.3900001
v -0.24726 0.14274 0.33852
v -0.24726 0.63726 0.3385201
v 0.24726 0.63726 0.3385201
v 0.24726 0.14274 0.33852
v -0.33852 0.7066748 0.1918751
v -0.37362 0.7066748 0.1918751
v -0.37362 0.1981251 -0.3166749
v -0.33852 0.1981251 -0.3166749
v -0.33852 0.07332511 -0.1918749
v -0.37362 0.07332511 -0.1918749
v -0.37362 0.5818748 0.316675
v -0.33852 0.5818748 0.316675
v 0.3166749 0.7285199 0.1918751
v 0.3166749 0.7636198 0.1918751
v -0.1918749 0.7636201 -0.3166748
v -0.1918749 0.7285199 -0.3166748
v -0.3166749 0.7285199 -0.1918748
v -0.3166749 0.7636201 -0.1918748
v 0.1918749 0.7636198 0.316675
v 0.1918749 0.7285199 0.316675
v -0.1918749 0.7066749 -0.3385198
v -0.1918749 0.7066749 -0.3736199
v 0.3166749 0.1981252 -0.37362
v 0.3166749 0.1981252 -0.3385199
v 0.1918749 0.07332513 -0.33852
v 0.1918749 0.07332513 -0.37362
v -0.3166749 0.581875 -0.3736199
v -0.3166749 0.581875 -0.3385198
v -0.1918749 0.07332502 0.33852
v -0.1918749 0.07332502 0.37362
v 0.3166749 0.5818748 0.3736201
v 0.3166749 0.5818748 0.3385201
v 0.1918749 0.7066748 0.3385201
v 0.1918749 0.7066748 0.3736201
v -0.3166749 0.198125 0.37362
v -0.3166749 0.198125 0.33852
v 0.33852 0.07332505 0.1918749
v 0.37362 0.07332505 0.1918749
v 0.37362 0.581875 -0.3166748
v 0.33852 0.581875 -0.3166748
v 0.33852 0.7066749 -0.1918748
v 0.37362 0.7066749 -0.1918748
v 0.37362 0.198125 0.3166749
v 0.33852 0.198125 0.3166749
v 0.37362 0.7066749 -0.1918748
v 0.37362 0.581875 -0.3166748
v 0.37362 0.07332505 0.1918749
v 0.37362 0.198125 0.3166749
v 0.1918749 0.7636198 0.316675
v -0.3166749 0.7636201 -0.1918748
v -0.1918749 0.7636201 -0.3166748
v 0.3166749 0.7636198 0.1918751
v -0.37362 0.7066748 0.1918751
v -0.37362 0.5818748 0.316675
v -0.37362 0.07332511 -0.1918749
v -0.37362 0.1981251 -0.3166749
v -0.1918749 0.7066749 -0.3736199
v -0.3166749 0.581875 -0.3736199
v 0.1918749 0.07332513 -0.37362
v 0.3166749 0.1981252 -0.37362
v 0.1918749 0.7066748 0.3736201
v 0.3166749 0.5818748 0.3736201
v -0.1918749 0.07332502 0.37362
v -0.3166749 0.198125 0.37362
v 0.39 0.78 -0.3899999
v -0.24726 0.78 -0.2472599
v -0.39 0.78 -0.3899999
v 0.24726 0.78 -0.2472599
v 0.39 0.78 0.3900001
v 0.24726 0.78 0.2472601
v -0.3899999 0.78 0.3900001
v -0.24726 0.78 0.2472601
v -0.24726 0.78 0.2472601
v -0.39 0.78 -0.3899999
v 0.24726 0.63726 0.3900001
v 0.39 0.78 0.3900001
v 0.39 -5.708835E-08 0.39
v 0.24726 0.14274 0.39
v -0.24726 0.63726 0.3900001
v -0.39 -5.708835E-08 0.39
v -0.3899999 0.78 0.3900001
v -0.24726 0.14274 0.39
v -0.3899999 0.78 0.3900001
v -0.39 0.63726 0.2472601
v -0.39 0.63726 -0.2472599
v -0.39 0.78 -0.3899999
v -0.39 -5.708835E-08 0.39
v -0.39 0.1427401 -0.24726
v -0.39 0.14274 0.24726
v -0.39 6.998978E-08 -0.39
v -0.24726 0.63726 -0.3899999
v -0.39 0.78 -0.3899999
v -0.39 6.998978E-08 -0.39
v 0.24726 0.63726 -0.3899999
v -0.24726 0.1427401 -0.39
v 0.39 0.78 -0.3899999
v 0.39 6.998978E-08 -0.39
v 0.24726 0.1427401 -0.39
v 0.39 6.998978E-08 -0.39
v 0.39 0.1427401 -0.24726
v 0.39 0.63726 -0.2472599
v 0.39 0.78 -0.3899999
v 0.39 -5.708835E-08 0.39
v 0.39 0.63726 0.2472601
v 0.39 0.14274 0.24726
v 0.39 0.78 0.3900001
vt 0.4272977 0.907177
vt 0.4272977 0.907177
vt 0.4272977 0.907177
vt 0.4272977 0.907177
vt 0.4272977 0.907177
vt 0.4272977 0.907177
vt 0.4272977 0.907177
vt 0.4272977 0.907177
vt 0.4272977 0.907177
vt 0.4272977 0.907177
vt 0.4272977 0.907177
vt 0.4272977 0.907177
vt 0.4272977 0.907177
vt 0.4272977 0.907177
vt 0.4272977 0.907177
vt 0.4272977 0.907177
vt 0.4879785 0.9432035
vt 0.4599453 0.9432035
vt 0.4599453 0.9868546
vt 0.4879785 0.9868546
vt 0.4272977 0.907177
vt 0.4272977 0.907177
vt 0.4272977 0.907177
vt 0.4272977 0.907177
vt 0.4272977 0.907177
vt 0.4272977 0.907177
vt 0.4272977 0.907177
vt 0.4272977 0.907177
vt 0.4272977 0.907177
vt 0.4272977 0.907177
vt 0.4272977 0.907177
vt 0.4272977 0.907177
vt 0.4272977 0.907177
vt 0.4272977 0.907177
vt 0.4272977 0.907177
vt 0.4272977 0.907177
vt 0.4879785 0.9432035
vt 0.4599453 0.9432035
vt 0.4599453 0.9868546
vt 0.4879785 0.9868546
vt 0.4272977 0.907177
vt 0.4272977 0.907177
vt 0.4272977 0.907177
vt 0.4272977 0.907177
vt 0.4272977 0.907177
vt 0.4272977 0.907177
vt 0.4272977 0.907177
vt 0.4272977 0.907177
vt 0.4272977 0.907177
vt 0.4272977 0.907177
vt 0.4272977 0.907177
vt 0.4272977 0.907177
vt 0.4272977 0.907177
vt 0.4272977 0.907177
vt 0.4272977 0.907177
vt 0.4272977 0.907177
vt 0.4599453 0.9432035
vt 0.4599453 0.9868546
vt 0.4879785 0.9868546
vt 0.4879785 0.9432035
vt 0.4272977 0.907177
vt 0.4272977 0.907177
vt 0.4272977 0.907177
vt 0.4272977 0.907177
vt 0.4272977 0.907177
vt 0.4272977 0.907177
vt 0.4272977 0.907177
vt 0.4272977 0.907177
vt 0.4272977 0.907177
vt 0.4272977 0.907177
vt 0.4272977 0.907177
vt 0.4272977 0.907177
vt 0.4272977 0.907177
vt 0.4272977 0.907177
vt 0.4272977 0.907177
vt 0.4272977 0.907177
vt 0.4879785 0.9432035
vt 0.4599453 0.9432035
vt 0.4599453 0.9868546
vt 0.4879785 0.9868546
vt 0.4272977 0.907177
vt 0.4272977 0.907177
vt 0.4272977 0.907177
vt 0.4272977 0.907177
vt 0.4272977 0.907177
vt 0.4272977 0.907177
vt 0.4272977 0.907177
vt 0.4272977 0.907177
vt 0.4272977 0.907177
vt 0.4272977 0.907177
vt 0.4272977 0.907177
vt 0.4272977 0.907177
vt 0.4272977 0.907177
vt 0.4272977 0.907177
vt 0.4272977 0.907177
vt 0.4272977 0.907177
vt 0.4879785 0.9868546
vt 0.4879785 0.9432035
vt 0.4599453 0.9432035
vt 0.4599453 0.9868546
vt 0.295784 0.8860413
vt 0.295784 0.8860413
vt 0.295784 0.8860413
vt 0.295784 0.8860413
vt 0.295784 0.8860413
vt 0.295784 0.8860413
vt 0.295784 0.8860413
vt 0.295784 0.8860413
vt 0.295784 0.8860413
vt 0.295784 0.8860413
vt 0.295784 0.8860413
vt 0.295784 0.8860413
vt 0.295784 0.8860413
vt 0.295784 0.8860413
vt 0.295784 0.8860413
vt 0.295784 0.8860413
vt 0.295784 0.8860413
vt 0.295784 0.8860413
vt 0.295784 0.8860413
vt 0.295784 0.8860413
vt 0.295784 0.8860413
vt 0.295784 0.8860413
vt 0.295784 0.8860413
vt 0.295784 0.8860413
vt 0.282344 0.9123902
vt 0.282344 0.9123902
vt 0.282344 0.9709933
vt 0.282344 0.9709933
vt 0.3127608 0.9709933
vt 0.3127608 0.9709933
vt 0.3127608 0.9123902
vt 0.3127608 0.9123902
vt 0.295784 0.8860413
vt 0.295784 0.8860413
vt 0.295784 0.8860413
vt 0.295784 0.8860413
vt 0.295784 0.8860413
vt 0.295784 0.8860413
vt 0.295784 0.8860413
vt 0.295784 0.8860413
vt 0.2958037 0.9454159
vt 0.2958037 0.9321204
vt 0.2958037 0.8779424
vt 0.2958037 0.8912379
vt 0.282344 0.9709933
vt 0.282344 0.9123902
vt 0.3127608 0.9123902
vt 0.3127608 0.9709933
vt 0.2885208 0.9454159
vt 0.2885208 0.9321204
vt 0.2885208 0.8779424
vt 0.2885208 0.8912379
vt 0.2902921 0.9454159
vt 0.2890758 0.9321204
vt 0.2940323 0.8779424
vt 0.2952487 0.8912379
vt 0.3127608 0.9709933
vt 0.282344 0.9709933
vt 0.282344 0.9123902
vt 0.3127608 0.9123902
vt 0.2959633 0.9881263
vt 0.2897524 0.9881263
vt 0.2883612 0.9881263
vt 0.2945721 0.9881263
vt 0.2959633 0.9881263
vt 0.2945721 0.9881263
vt 0.2883612 0.9881263
vt 0.2897524 0.9881263
vt 0.2883612 0.9881263
vt 0.2897524 0.9881263
vt 0.2945721 0.9669982
vt 0.2959633 0.9881263
vt 0.2959633 0.8726721
vt 0.2945721 0.8938003
vt 0.2897524 0.9669982
vt 0.2883612 0.8726721
vt 0.2883612 0.9881263
vt 0.2897524 0.8938003
vt 0.2883612 0.9881263
vt 0.2883612 0.9669982
vt 0.2883612 0.9669982
vt 0.2883612 0.9881263
vt 0.2883612 0.8726721
vt 0.2883612 0.8938003
vt 0.2883612 0.8938003
vt 0.2883612 0.8726721
vt 0.2897524 0.9669982
vt 0.2883612 0.9881263
vt 0.2883612 0.8726721
vt 0.2945721 0.9669982
vt 0.2897524 0.8938003
vt 0.2959633 0.9881263
vt 0.2959633 0.8726721
vt 0.2945721 0.8938003
vt 0.2959633 0.8726721
vt 0.2959633 0.8938003
vt 0.2959633 0.9669982
vt 0.2959633 0.9881263
vt 0.2959633 0.8726721
vt 0.2959633 0.9669982
vt 0.2959633 0.8938003
vt 0.2959633 0.9881263
vn 0 1 1.629207E-07
vn 0 1 1.629207E-07
vn 0 1 1.629207E-07
vn 0 1 1.629207E-07
vn 1 0 0
vn 1 0 0
vn 1 0 0
vn 1 0 0
vn 0 -1 -1.629207E-07
vn 0 -1 -1.629207E-07
vn 0 -1 -1.629207E-07
vn 0 -1 -1.629207E-07
vn -1 0 0
vn -1 0 0
vn -1 0 0
vn -1 0 0
vn 0 1.629207E-07 -1
vn 0 1.629207E-07 -1
vn 0 1.629207E-07 -1
vn 0 1.629207E-07 -1
vn 0 1 1.629207E-07
vn 0 1 1.629207E-07
vn 0 1 1.629207E-07
vn 0 1 1.629207E-07
vn 0 1.629207E-07 -1
vn 0 1.629207E-07 -1
vn 0 1.629207E-07 -1
vn 0 1.629207E-07 -1
vn 0 -1 -1.629207E-07
vn 0 -1 -1.629207E-07
vn 0 -1 -1.629207E-07
vn 0 -1 -1.629207E-07
vn 0 -1.629207E-07 1
vn 0 -1.629207E-07 1
vn 0 -1.629207E-07 1
vn 0 -1.629207E-07 1
vn -1 0 0
vn -1 0 0
vn -1 0 0
vn -1 0 0
vn 1 0 0
vn 1 0 0
vn 1 0 0
vn 1 0 0
vn 0 1.629207E-07 -1
vn 0 1.629207E-07 -1
vn 0 1.629207E-07 -1
vn 0 1.629207E-07 -1
vn -1 0 0
vn -1 0 0
vn -1 0 0
vn -1 0 0
vn 0 -1.629207E-07 1
vn 0 -1.629207E-07 1
vn 0 -1.629207E-07 1
vn 0 -1.629207E-07 1
vn 0 1 1.629207E-07
vn 0 1 1.629207E-07
vn 0 1 1.629207E-07
vn 0 1 1.629207E-07
vn 0 -1 -1.629207E-07
vn 0 -1 -1.629207E-07
vn 0 -1 -1.629207E-07
vn 0 -1 -1.629207E-07
vn 0 1.629207E-07 -1
vn 0 1.629207E-07 -1
vn 0 1.629207E-07 -1
vn 0 1.629207E-07 -1
vn 0 1 1.629207E-07
vn 0 1 1.629207E-07
vn 0 1 1.629207E-07
vn 0 1 1.629207E-07
vn 0 -1.629207E-07 1
vn 0 -1.629207E-07 1
vn 0 -1.629207E-07 1
vn 0 -1.629207E-07 1
vn 1 0 0
vn 1 0 0
vn 1 0 0
vn 1 0 0
vn 1 0 0
vn 1 0 0
vn 1 0 0
vn 1 0 0
vn 0 1 1.629207E-07
vn 0 1 1.629207E-07
vn 0 1 1.629207E-07
vn 0 1 1.629207E-07
vn -1 0 0
vn -1 0 0
vn -1 0 0
vn -1 0 0
vn 0 -1 -1.629207E-07
vn 0 -1 -1.629207E-07
vn 0 -1 -1.629207E-07
vn 0 -1 -1.629207E-07
vn 0 -1.629207E-07 1
vn 0 -1.629207E-07 1
vn 0 -1.629207E-07 1
vn 0 -1.629207E-07 1
vn 0 0.7071069 -0.7071066
vn 0 0.7071069 -0.7071066
vn 0 0.7071069 -0.7071066
vn 0 0.7071069 -0.7071066
vn 0 -0.707107 0.7071065
vn 0 -0.707107 0.7071065
vn 0 -0.707107 0.7071065
vn 0 -0.707107 0.7071065
vn 0.7071066 1.152023E-07 -0.7071068
vn 0.7071066 1.152023E-07 -0.7071068
vn 0.7071066 1.152023E-07 -0.7071068
vn 0.7071066 1.152023E-07 -0.7071068
vn -0.7071066 -1.152023E-07 0.7071068
vn -0.7071066 -1.152023E-07 0.7071068
vn -0.7071066 -1.152023E-07 0.7071068
vn -0.7071066 -1.152023E-07 0.7071068
vn 0.7071068 0.7071068 1.152023E-07
vn 0.7071068 0.7071068 1.152023E-07
vn 0.7071068 0.7071068 1.152023E-07
vn 0.7071068 0.7071068 1.152023E-07
vn -0.7071066 -0.7071069 -1.152023E-07
vn -0.7071066 -0.7071069 -1.152023E-07
vn -0.7071066 -0.7071069 -1.152023E-07
vn -0.7071066 -0.7071069 -1.152023E-07
vn 0.7071066 -0.7071069 -1.152023E-07
vn 0.7071066 -0.7071069 -1.152023E-07
vn 0.7071066 -0.7071069 -1.152023E-07
vn 0.7071066 -0.7071069 -1.152023E-07
vn -0.7071068 0.7071068 1.152023E-07
vn -0.7071068 0.7071068 1.152023E-07
vn -0.7071068 0.7071068 1.152023E-07
vn -0.7071068 0.7071068 1.152023E-07
vn 0 -0.7071066 -0.7071068
vn 0 -0.7071066 -0.7071068
vn 0 -0.7071066 -0.7071068
vn 0 -0.7071066 -0.7071068
vn 0 0.7071066 0.7071069
vn 0 0.7071066 0.7071069
vn 0 0.7071066 0.7071069
vn 0 0.7071066 0.7071069
vn 1 0 0
vn 1 0 0
vn 1 0 0
vn 1 0 0
vn 0 1 1.629207E-07
vn 0 1 1.629207E-07
vn 0 1 1.629207E-07
vn 0 1 1.629207E-07
vn -1 0 0
vn -1 0 0
vn -1 0 0
vn -1 0 0
vn 0 1.629207E-07 -1
vn 0 1.629207E-07 -1
vn 0 1.629207E-07 -1
vn 0 1.629207E-07 -1
vn 0 -1.629207E-07 1
vn 0 -1.629207E-07 1
vn 0 -1.629207E-07 1
vn 0 -1.629207E-07 1
vn 0 1 1.629207E-07
vn 0 1 1.629207E-07
vn 0 1 1.629207E-07
vn 0 1 1.629207E-07
vn 0 1 1.629207E-07
vn 0 1 1.629207E-07
vn 0 1 1.629207E-07
vn 0 1 1.629207E-07
vn 0 1 1.629207E-07
vn 0 1 1.629207E-07
vn 0 -1.629207E-07 1
vn 0 -1.629207E-07 1
vn 0 -1.629207E-07 1
vn 0 -1.629207E-07 1
vn 0 -1.629207E-07 1
vn 0 -1.629207E-07 1
vn 0 -1.629207E-07 1
vn 0 -1.629207E-07 1
vn -1 2.084534E-07 0
vn -1 2.084533E-07 0
vn -1 2.084533E-07 0
vn -1 2.084534E-07 0
vn -1 0 0
vn -1 0 0
vn -1 0 0
vn -1 0 0
vn 0 1.629207E-07 -1
vn 0 1.629207E-07 -1
vn 0 1.629207E-07 -1
vn 0 1.629207E-07 -1
vn 0 1.629207E-07 -1
vn 0 1.629207E-07 -1
vn 0 1.629207E-07 -1
vn 0 1.629207E-07 -1
vn 1 0 0
vn 1 0 0
vn 1 0 0
vn 1 0 0
vn 1 0 0
vn 1 0 0
vn 1 0 0
vn 1 0 0
g SM_Box_0
f 3/3/3 2/2/2 1/1/1
f 4/4/4 3/3/3 1/1/1
f 7/7/7 6/6/6 5/5/5
f 8/8/8 7/7/7 5/5/5
f 11/11/11 10/10/10 9/9/9
f 12/12/12 11/11/11 9/9/9
f 15/15/15 14/14/14 13/13/13
f 16/16/16 15/15/15 13/13/13
f 19/19/19 18/18/18 17/17/17
f 20/20/20 19/19/19 17/17/17
f 23/23/23 22/22/22 21/21/21
f 24/24/24 23/23/23 21/21/21
f 27/27/27 26/26/26 25/25/25
f 28/28/28 27/27/27 25/25/25
f 31/31/31 30/30/30 29/29/29
f 32/32/32 31/31/31 29/29/29
f 35/35/35 34/34/34 33/33/33
f 36/36/36 35/35/35 33/33/33
f 39/39/39 38/38/38 37/37/37
f 40/40/40 39/39/39 37/37/37
f 43/43/43 42/42/42 41/41/41
f 44/44/44 43/43/43 41/41/41
f 47/47/47 46/46/46 45/45/45
f 48/48/48 47/47/47 45/45/45
f 51/51/51 50/50/50 49/49/49
f 52/52/52 51/51/51 49/49/49
f 55/55/55 54/54/54 53/53/53
f 56/56/56 55/55/55 53/53/53
f 59/59/59 58/58/58 57/57/57
f 60/60/60 59/59/59 57/57/57
f 63/63/63 62/62/62 61/61/61
f 64/64/64 63/63/63 61/61/61
f 67/67/67 66/66/66 65/65/65
f 68/68/68 67/67/67 65/65/65
f 71/71/71 70/70/70 69/69/69
f 72/72/72 71/71/71 69/69/69
f 75/75/75 74/74/74 73/73/73
f 76/76/76 75/75/75 73/73/73
f 79/79/79 78/78/78 77/77/77
f 80/80/80 79/79/79 77/77/77
f 83/83/83 82/82/82 81/81/81
f 84/84/84 83/83/83 81/81/81
f 87/87/87 86/86/86 85/85/85
f 88/88/88 87/87/87 85/85/85
f 91/91/91 90/90/90 89/89/89
f 92/92/92 91/91/91 89/89/89
f 95/95/95 94/94/94 93/93/93
f 96/96/96 95/95/95 93/93/93
f 99/99/99 98/98/98 97/97/97
f 100/100/100 99/99/99 97/97/97
f 103/103/103 102/102/102 101/101/101
f 104/104/104 103/103/103 101/101/101
f 107/107/107 106/106/106 105/105/105
f 108/108/108 107/107/107 105/105/105
f 111/111/111 110/110/110 109/109/109
f 112/112/112 111/111/111 109/109/109
f 115/115/115 114/114/114 113/113/113
f 116/116/116 115/115/115 113/113/113
f 119/119/119 118/118/118 117/117/117
f 120/120/120 119/119/119 117/117/117
f 123/123/123 122/122/122 121/121/121
f 124/124/124 123/123/123 121/121/121
f 127/127/127 126/126/126 125/125/125
f 128/128/128 127/127/127 125/125/125
f 131/131/131 130/130/130 129/129/129
f 132/132/132 131/131/131 129/129/129
f 135/135/135 134/134/134 133/133/133
f 136/136/136 135/135/135 133/133/133
f 139/139/139 138/138/138 137/137/137
f 140/140/140 139/139/139 137/137/137
f 143/143/143 142/142/142 141/141/141
f 144/144/144 143/143/143 141/141/141
f 147/147/147 146/146/146 145/145/145
f 148/148/148 147/147/147 145/145/145
f 151/151/151 150/150/150 149/149/149
f 152/152/152 151/151/151 149/149/149
f 155/155/155 154/154/154 153/153/153
f 156/156/156 155/155/155 153/153/153
f 159/159/159 158/158/158 157/157/157
f 160/160/160 159/159/159 157/157/157
f 163/163/163 162/162/162 161/161/161
f 162/162/162 164/164/164 161/161/161
f 165/165/165 161/161/161 164/164/164
f 166/166/166 165/165/165 164/164/164
f 167/167/167 165/165/165 166/166/166
f 168/168/168 167/167/167 166/166/166
f 167/167/167 169/169/169 162/162/162
f 170/170/170 167/167/167 162/162/162
f 173/173/173 172/172/172 171/171/171
f 174/174/174 173/173/173 171/171/171
f 171/171/171 172/172/172 175/175/175
f 176/176/176 173/173/173 174/174/174
f 172/172/172 177/177/177 175/175/175
f 178/178/178 176/176/176 174/174/174
f 175/175/175 177/177/177 178/178/178
f 177/177/177 176/176/176 178/178/178
f 181/181/181 180/180/180 179/179/179
f 182/182/182 181/181/181 179/179/179
f 183/183/183 179/179/179 180/180/180
f 181/181/181 182/182/182 184/184/184
f 185/185/185 183/183/183 180/180/180
f 182/182/182 186/186/186 184/184/184
f 186/186/186 183/183/183 185/185/185
f 184/184/184 186/186/186 185/185/185
f 189/189/189 188/188/188 187/187/187
f 187/187/187 188/188/188 190/190/190
f 191/191/191 189/189/189 187/187/187
f 188/188/188 192/192/192 190/190/190
f 193/193/193 189/189/189 191/191/191
f 194/194/194 190/190/190 192/192/192
f 194/194/194 193/193/193 191/191/191
f 193/193/193 194/194/194 192/192/192
f 197/197/197 196/196/196 195/195/195
f 198/198/198 197/197/197 195/195/195
f 199/199/199 195/195/195 196/196/196
f 197/197/197 198/198/198 200/200/200
f 201/201/201 199/199/199 196/196/196
f 198/198/198 202/202/202 200/200/200
f 202/202/202 199/199/199 201/201/201
f 200/200/200 202/202/202 201/201/201
