g SM_Plastic3
v 0.4894428 0.03999999 0.02714437
v 0.3619061 0.03949999 0.3357918
v 0.3179059 0.03999999 0.2897918
v 0.3179059 7.599592E-10 0.2897918
v 0.3619061 0.0005000008 0.3357918
v 0.4894428 7.599592E-10 0.02714437
v -0.4296155 7.599592E-10 0.255088
v -0.2145724 7.599592E-10 0.2804956
v -0.2145724 0.03999999 0.2804956
v -0.4296155 0.03999999 0.255088
v 0.09688473 0.03600947 0.07470292
v 0.09339857 0.07585724 0.07470292
v 0.1719818 0.08273236 0.009100139
v 0.1754675 0.04288459 0.009100139
v -0.1234064 0.05688925 -0.4080611
v -0.1199203 0.01704148 -0.4080611
v -0.06712961 0.02166007 -0.3349607
v -0.07061625 0.06150784 -0.3349607
v -0.1199203 0.01704148 -0.4080611
v -0.1234064 0.05688925 -0.4080611
v -0.3068333 0.0408415 -0.3481403
v -0.3033471 0.0009937263 -0.3481403
v -0.4296155 0.03999999 0.255088
v -0.4894428 0.03999999 0.4327083
v -0.4894428 7.599592E-10 0.4327083
v -0.4296155 7.599592E-10 0.255088
v 0.2432675 0.0889691 -0.3206801
v 0.1680298 0.08238664 -0.3714076
v 0.1715159 0.04253886 -0.3714076
v 0.2467537 0.04912132 -0.3206801
v 0.2432675 0.0889691 -0.3206801
v 0.2467537 0.04912132 -0.3206801
v 0.1754675 0.04288459 0.009100139
v 0.1719818 0.08273236 0.009100139
v 0.1680298 0.08238664 -0.3714076
v -0.07061625 0.06150784 -0.3349607
v -0.06712961 0.02166007 -0.3349607
v 0.1715159 0.04253886 -0.3714076
v -0.2405891 0.00648435 0.06708771
v -0.3257828 -0.0009691538 -0.02733141
v -0.3292689 0.03887862 -0.02733141
v -0.2440748 0.04633211 0.06708771
v -0.3257828 -0.0009691538 -0.02733141
v -0.3033471 0.0009937263 -0.3481403
v -0.3068333 0.0408415 -0.3481403
v -0.3292689 0.03887862 -0.02733141
v -0.2405891 0.00648435 0.06708771
v -0.2440748 0.04633211 0.06708771
v 0.09339857 0.07585724 0.07470292
v 0.09688473 0.03600947 0.07470292
v -0.3033471 0.0009937263 -0.3481403
v -0.3257828 -0.0009691538 -0.02733141
v -0.1199203 0.01704148 -0.4080611
v -0.2405891 0.00648435 0.06708771
v -0.06712961 0.02166007 -0.3349607
v 0.09688473 0.03600947 0.07470292
v 0.1715159 0.04253886 -0.3714076
v 0.1754675 0.04288459 0.009100139
v 0.2467537 0.04912132 -0.3206801
v -0.2840943 7.599592E-10 0.4797918
v -0.4894428 7.599592E-10 0.4327083
v -0.4894428 0.03999999 0.4327083
v -0.2840943 0.03999999 0.4797918
v 0.2787142 7.599592E-10 -0.4797918
v 0.4822969 7.599592E-10 -0.3650154
v 0.4822969 0.03999999 -0.3650154
v 0.2787142 0.03999999 -0.4797918
v 0.2787142 0.03999999 -0.4797918
v 0.1179061 0.03999999 -0.1442083
v 0.1179061 7.599592E-10 -0.1442083
v 0.2787142 7.599592E-10 -0.4797918
v 0.3739057 7.599592E-10 -0.1142083
v 0.2682996 7.599592E-10 -0.05084973
v 0.2682996 0.03999999 -0.05084973
v 0.3739057 0.03999999 -0.1142083
v 0.2682996 7.599592E-10 -0.05084973
v 0.1179061 7.599592E-10 -0.1442083
v 0.1179061 0.03999999 -0.1442083
v 0.2682996 0.03999999 -0.05084973
v 0.3739057 7.599592E-10 -0.1142083
v 0.3739057 0.03999999 -0.1142083
v 0.4822969 0.03999999 -0.3650154
v 0.4822969 7.599592E-10 -0.3650154
v 0.2787142 0.03999999 -0.4797918
v 0.4822969 0.03999999 -0.3650154
v 0.1179061 0.03999999 -0.1442083
v 0.2682996 0.03999999 -0.05084973
v 0.3739057 0.03999999 -0.1142083
v 0.2787142 7.599592E-10 -0.4797918
v 0.1179061 7.599592E-10 -0.1442083
v 0.4822969 7.599592E-10 -0.3650154
v 0.2682996 7.599592E-10 -0.05084973
v 0.3739057 7.599592E-10 -0.1142083
v -0.2145724 0.03999999 0.2804956
v -0.2840943 0.03999999 0.4797918
v -0.4894428 0.03999999 0.4327083
v -0.4296155 0.03999999 0.255088
v -0.2145724 7.599592E-10 0.2804956
v -0.4296155 7.599592E-10 0.255088
v -0.4894428 7.599592E-10 0.4327083
v -0.2840943 7.599592E-10 0.4797918
v 0.1475863 7.599592E-10 -0.06756109
v 0.4894428 7.599592E-10 0.02714437
v 0.4894428 0.03999999 0.02714437
v 0.1475863 0.03999999 -0.06756109
v 0.1475863 0.03999999 -0.06756109
v 0.0387454 0.03999999 0.2360318
v 0.0387454 7.599592E-10 0.2360318
v 0.1475863 7.599592E-10 -0.06756109
v 0.3179059 7.599592E-10 0.2897918
v 0.0387454 7.599592E-10 0.2360318
v 0.0387454 0.03999999 0.2360318
v 0.3179059 0.03999999 0.2897918
v 0.4894428 0.03999999 0.02714437
v 0.3179059 0.03999999 0.2897918
v 0.0387454 0.03999999 0.2360318
v 0.1475863 0.03999999 -0.06756109
v 0.4894428 7.599592E-10 0.02714437
v 0.1475863 7.599592E-10 -0.06756109
v 0.0387454 7.599592E-10 0.2360318
v 0.3179059 7.599592E-10 0.2897918
v 0.3179059 0.03999999 0.2897918
v 0.3619061 0.03949999 0.3357918
v 0.3619061 0.0005000008 0.3357918
v 0.3179059 7.599592E-10 0.2897918
v 0.4894428 7.599592E-10 0.02714437
v 0.3619061 0.0005000008 0.3357918
v 0.3619061 0.03949999 0.3357918
v 0.4894428 0.03999999 0.02714437
v -0.2840943 0.03999999 0.4797918
v -0.2145724 0.03999999 0.2804956
v -0.2145724 7.599592E-10 0.2804956
v -0.2840943 7.599592E-10 0.4797918
v 0.1719818 0.08273236 0.009100139
v 0.1680298 0.08238664 -0.3714076
v 0.2432675 0.0889691 -0.3206801
v -0.07061625 0.06150784 -0.3349607
v 0.09339857 0.07585724 0.07470292
v -0.2440748 0.04633211 0.06708771
v -0.1234064 0.05688925 -0.4080611
v -0.3292689 0.03887862 -0.02733141
v -0.3068333 0.0408415 -0.3481403
v 0.07780933 0.07650101 0.03034395
v 0.1939459 0.08666168 -0.3008128
v 0.1321726 0.08125722 -0.01503986
v 0.1575799 0.08348003 -0.3253319
v -0.09060335 0.06176687 -0.2874286
v -0.2244172 0.0500596 0.02352411
v -0.2844095 0.04481096 -0.04296451
v -0.1403484 0.05741469 -0.3563124
v -0.2653518 0.04647833 -0.315477
v 0.4822969 0.04049999 -0.3650154
v 0.2594676 0.04049999 -0.4396265
v 0.2787142 0.04049999 -0.4797918
v 0.436748 0.04049999 -0.3374145
v 0.3739057 0.04049999 -0.1142083
v 0.3316655 0.04049999 -0.1191583
v 0.2682996 0.04049999 -0.05084973
v 0.2397246 0.04049999 -0.06858784
v 0.1510186 0.04049999 0.06765383
v 0.4573455 0.04049999 0.09968561
v 0.441493 0.04049999 0.1383598
v 0.1672854 0.04049999 0.02677125
v 0.1378064 0.04049999 0.04194599
v 0.1038146 0.04049999 0.1861495
v 0.4106903 0.04049999 0.2118374
v 0.3947792 0.04049999 0.250455
v 0.1200786 0.04049999 0.1452659
v 0.09046412 0.04049999 0.1608916
vt 0.008968368 0.8196155
vt 0.00852365 0.819438
vt 0.008370236 0.8196155
vt 0.008370236 0.8185533
vt 0.00852365 0.8187309
vt 0.008968368 0.8185533
vt 0.007384997 0.8186371
vt 0.008134831 0.8186371
vt 0.007977948 0.8248003
vt 0.007230238 0.82491
vt 0.008660734 0.8183857
vt 0.008516178 0.8251797
vt 0.008792825 0.8252621
vt 0.008935794 0.8183857
vt 0.007755988 0.8251128
vt 0.007901859 0.8183857
vt 0.008086644 0.8183857
vt 0.007940646 0.8251068
vt 0.007901859 0.8183857
vt 0.007755988 0.8251128
vt 0.00711649 0.8252434
vt 0.007259828 0.8183857
vt 0.007230238 0.82491
vt 0.007023123 0.8249861
vt 0.007176374 0.8186371
vt 0.007384997 0.8186371
vt 0.009044304 0.8253619
vt 0.008778907 0.8252572
vt 0.008921959 0.8183857
vt 0.009185318 0.8183857
vt 0.009044304 0.8253619
vt 0.009185318 0.8183857
vt 0.008935794 0.8183857
vt 0.008792825 0.8252621
vt 0.008778907 0.8252572
vt 0.007940646 0.8251068
vt 0.008086644 0.8183857
vt 0.008921959 0.8183857
vt 0.0074795 0.8183857
vt 0.007181295 0.8183857
vt 0.007038489 0.8252707
vt 0.007334929 0.8251799
vt 0.007181295 0.8183857
vt 0.007259828 0.8183857
vt 0.00711649 0.8252434
vt 0.007038489 0.8252707
vt 0.0074795 0.8183857
vt 0.007334929 0.8251799
vt 0.008516178 0.8251797
vt 0.008660734 0.8183857
vt 0.007259828 0.8183857
vt 0.007181295 0.8183857
vt 0.007901859 0.8183857
vt 0.0074795 0.8183857
vt 0.008086644 0.8183857
vt 0.008660734 0.8183857
vt 0.008921959 0.8183857
vt 0.008935794 0.8183857
vt 0.009185318 0.8183857
vt 0.007892422 0.8186371
vt 0.007176374 0.8186371
vt 0.007023123 0.8249861
vt 0.007735659 0.8248067
vt 0.008233573 0.8185533
vt 0.008943453 0.8185533
vt 0.008793522 0.8250728
vt 0.008080427 0.8249078
vt 0.008080427 0.8249078
vt 0.00752027 0.8249378
vt 0.007672836 0.8185533
vt 0.008233573 0.8185533
vt 0.008565493 0.8185533
vt 0.008197255 0.8185533
vt 0.008044064 0.8249055
vt 0.008413304 0.8249574
vt 0.008197255 0.8185533
vt 0.007672836 0.8185533
vt 0.00752027 0.8249378
vt 0.008044064 0.8249055
vt 0.008565493 0.8185533
vt 0.008413304 0.8249574
vt 0.008793522 0.8250728
vt 0.008943453 0.8185533
vt 0.008233573 0.8184765
vt 0.008943453 0.8184765
vt 0.007672836 0.8184765
vt 0.008197255 0.8184765
vt 0.008565493 0.8184765
vt 0.008233573 0.8185533
vt 0.007672836 0.8185533
vt 0.008943453 0.8185533
vt 0.008197255 0.8185533
vt 0.008565493 0.8185533
vt 0.008134831 0.8330632
vt 0.007892422 0.8330632
vt 0.007176374 0.8330632
vt 0.007384997 0.8330632
vt 0.008134831 0.8186371
vt 0.007384997 0.8186371
vt 0.007176374 0.8186371
vt 0.007892422 0.8186371
vt 0.007776332 0.8185533
vt 0.008968368 0.8185533
vt 0.00881863 0.8250825
vt 0.007623449 0.8249215
vt 0.007623449 0.8249215
vt 0.007245552 0.8250043
vt 0.00739681 0.8185533
vt 0.007776332 0.8185533
vt 0.008370236 0.8185533
vt 0.00739681 0.8185533
vt 0.007245552 0.8250043
vt 0.008217357 0.8249223
vt 0.008968368 0.8196155
vt 0.008370236 0.8196155
vt 0.00739681 0.8196155
vt 0.007776332 0.8196155
vt 0.008968368 0.8185533
vt 0.007776332 0.8185533
vt 0.00739681 0.8185533
vt 0.008370236 0.8185533
vt 0.008217357 0.8249223
vt 0.008378923 0.8251618
vt 0.00852365 0.8187309
vt 0.008370236 0.8185533
vt 0.008968368 0.8185533
vt 0.00852365 0.8187309
vt 0.008378923 0.8251618
vt 0.00881863 0.8250825
vt 0.007735659 0.8248067
vt 0.007977948 0.8248003
vt 0.008134831 0.8186371
vt 0.007892422 0.8186371
vt 0.008180849 0.8324445
vt 0.008180849 0.8324445
vt 0.008180849 0.8324445
vt 0.008180849 0.8324445
vt 0.008180849 0.8324445
vt 0.008180849 0.8324445
vt 0.008180849 0.8324445
vt 0.008180849 0.8324445
vt 0.008180849 0.8324445
vt 0.008180849 0.8199157
vt 0.008180849 0.8199157
vt 0.008180849 0.8199157
vt 0.008180849 0.8199157
vt 0.008180849 0.8199157
vt 0.008180849 0.8199157
vt 0.008180849 0.8199157
vt 0.008180849 0.8199157
vt 0.008180849 0.8199157
vt 0.008943453 0.8327517
vt 0.008166455 0.8327517
vt 0.008233573 0.8327517
vt 0.008784633 0.8327517
vt 0.008565493 0.8327517
vt 0.008418202 0.8327517
vt 0.008197255 0.8327517
vt 0.008097619 0.8327517
vt 0.007788301 0.8327517
vt 0.008811064 0.8327517
vt 0.008727185 0.8327517
vt 0.007845033 0.8327517
vt 0.007742238 0.8327517
vt 0.007623692 0.8327517
vt 0.008567017 0.8327517
vt 0.008483119 0.8327517
vt 0.007680417 0.8327517
vt 0.007577159 0.8327517
vn 0.006752625 0.9999675 0.004410194
vn 0.006752626 0.9999675 0.004410193
vn 0.006752626 0.9999675 0.004410194
vn 0.006752601 -0.9999675 0.004410172
vn 0.006752601 -0.9999675 0.004410172
vn 0.006752601 -0.9999675 0.004410173
vn 0.1173349 0 -0.9930924
vn 0.1173349 0 -0.9930924
vn 0.1173349 0 -0.9930924
vn 0.1173349 0 -0.9930924
vn 0.6369851 0.05572397 0.7688594
vn 0.6369852 0.05572398 0.7688593
vn 0.6369851 0.05572397 0.7688594
vn 0.6369851 0.05572397 0.7688594
vn 0.8065593 0.07056817 -0.586926
vn 0.8065593 0.07056817 -0.5869261
vn 0.8065593 0.07056818 -0.586926
vn 0.8065593 0.07056817 -0.586926
vn -0.3082795 -0.02697041 -0.9509134
vn -0.3082795 -0.02697041 -0.9509134
vn -0.3082795 -0.02697041 -0.9509134
vn -0.3082795 -0.02697041 -0.9509134
vn -0.9476853 0 -0.3192062
vn -0.9476853 0 -0.3192062
vn -0.9476853 0 -0.3192062
vn -0.9476853 0 -0.3192062
vn 0.5554466 0.04859453 -0.8301311
vn 0.5554466 0.04859453 -0.8301311
vn 0.5554466 0.04859453 -0.8301311
vn 0.5554466 0.04859452 -0.8301311
vn 0.97354 0.0851664 0.212053
vn 0.97354 0.0851664 0.2120531
vn 0.97354 0.0851664 0.212053
vn 0.97354 0.0851664 0.212053
vn -0.1498391 -0.01310986 -0.9886234
vn -0.1498391 -0.01310986 -0.9886234
vn -0.1498391 -0.01310986 -0.9886234
vn -0.1498391 -0.01310986 -0.9886234
vn -0.7383547 -0.0645915 0.6713123
vn -0.7383546 -0.06459149 0.6713124
vn -0.7383546 -0.06459149 0.6713124
vn -0.7383546 -0.06459148 0.6713124
vn -0.9937491 -0.08693997 -0.07002942
vn -0.9937491 -0.08693998 -0.07002943
vn -0.9937491 -0.08693997 -0.07002942
vn -0.9937491 -0.08693998 -0.07002943
vn -0.0223883 -0.001958548 0.9997475
vn -0.02238831 -0.001958548 0.9997475
vn -0.02238831 -0.001958548 0.9997475
vn -0.02238831 -0.001958548 0.9997475
vn 0.08715567 -0.9961947 0
vn 0.08715592 -0.9961947 1.062258E-07
vn 0.08715571 -0.9961947 0
vn 0.08715568 -0.9961947 0
vn 0.08715568 -0.9961947 0
vn 0.08715568 -0.9961947 0
vn 0.08715577 -0.9961947 0
vn 0.08715599 -0.9961947 0
vn 0.08715577 -0.9961947 0
vn -0.2234865 0 0.974707
vn -0.2234865 0 0.974707
vn -0.2234865 0 0.974707
vn -0.2234865 0 0.974707
vn 0.4911098 0 -0.8710977
vn 0.4911098 0 -0.8710977
vn 0.4911098 0 -0.8710977
vn 0.4911098 0 -0.8710977
vn -0.9018081 0 -0.4321368
vn -0.9018081 0 -0.4321368
vn -0.9018081 0 -0.4321368
vn -0.9018081 0 -0.4321368
vn 0.5144652 0 0.8575112
vn 0.5144652 0 0.8575112
vn 0.5144652 0 0.8575112
vn 0.5144652 0 0.8575112
vn -0.527407 0 0.8496127
vn -0.527407 0 0.8496127
vn -0.527407 0 0.8496127
vn -0.527407 0 0.8496127
vn 0.9179448 0 0.3967081
vn 0.9179448 0 0.3967081
vn 0.9179448 0 0.3967081
vn 0.9179448 0 0.3967081
vn 0 1 0
vn 0 1 0
vn 0 1 0
vn 0 1 0
vn 0 1 0
vn 0 -1 0
vn 0 -1 0
vn 0 -1 0
vn 0 -1 0
vn 0 -1 0
vn 0 1 0
vn 0 1 0
vn 0 1 0
vn 0 1 0
vn 0 -1 0
vn 0 -1 0
vn 0 -1 0
vn 0 -1 0
vn 0.2669774 0 -0.9637028
vn 0.2669774 0 -0.9637028
vn 0.2669774 0 -0.9637028
vn 0.2669774 0 -0.9637028
vn -0.9413337 0 -0.3374771
vn -0.9413337 0 -0.3374771
vn -0.9413337 0 -0.3374771
vn -0.9413337 0 -0.3374771
vn -0.1891025 0 0.9819574
vn -0.1891025 0 0.9819574
vn -0.1891025 0 0.9819574
vn -0.1891025 0 0.9819574
vn 0 1 0
vn 0 1 0
vn 0 1 0
vn 0 1 0
vn 0 -1 0
vn 0 -1 0
vn 0 -1 0
vn 0 -1 0
vn -0.7226408 0 0.6912239
vn -0.7226408 0 0.6912239
vn -0.7226408 0 0.6912239
vn -0.7226408 0 0.6912239
vn 0.9242064 0 0.3818931
vn 0.9242064 0 0.3818931
vn 0.9242064 0 0.3818931
vn 0.9242064 0 0.3818931
vn 0.9442002 0 0.329372
vn 0.9442002 0 0.329372
vn 0.9442002 0 0.329372
vn 0.9442002 0 0.329372
vn -0.08715606 0.9961947 0
vn -0.08715608 0.9961947 0
vn -0.08715608 0.9961947 0
vn -0.08715595 0.9961947 0
vn -0.08715596 0.9961947 0
vn -0.08715596 0.9961947 0
vn -0.08715595 0.9961947 0
vn -0.08715558 0.9961947 0
vn -0.08715557 0.9961947 0
vn -0.08715551 0.9961947 0
vn -0.08715662 0.9961946 -2.04168E-07
vn -0.08715659 0.9961946 -2.38779E-07
vn -0.08715552 0.9961947 0
vn -0.08715551 0.9961947 0
vn -0.0871558 0.9961947 1.922302E-07
vn -0.08715586 0.9961947 1.655139E-07
vn -0.08715632 0.9961947 -1.78755E-07
vn -0.08715562 0.9961947 1.82664E-07
vn 0 1 0
vn 0 1 0
vn 0 1 0
vn 0 1 0
vn 0 1 0
vn 0 1 0
vn 0 1 0
vn 0 1 0
vn 0 1 0
vn 0 1 0
vn 0 1 0
vn 0 1 0
vn 0 1 0
vn 0 1 0
vn 0 1 0
vn 0 1 0
vn 0 1 0
vn 0 1 0
g SM_Plastic3_0
f 3/3/3 2/2/2 1/1/1
f 6/6/6 5/5/5 4/4/4
f 9/9/9 8/8/8 7/7/7
f 10/10/10 9/9/9 7/7/7
f 13/13/13 12/12/12 11/11/11
f 14/14/14 13/13/13 11/11/11
f 17/17/17 16/16/16 15/15/15
f 18/18/18 17/17/17 15/15/15
f 21/21/21 20/20/20 19/19/19
f 22/22/22 21/21/21 19/19/19
f 25/25/25 24/24/24 23/23/23
f 26/26/26 25/25/25 23/23/23
f 29/29/29 28/28/28 27/27/27
f 30/30/30 29/29/29 27/27/27
f 33/33/33 32/32/32 31/31/31
f 34/34/34 33/33/33 31/31/31
f 37/37/37 36/36/36 35/35/35
f 38/38/38 37/37/37 35/35/35
f 41/41/41 40/40/40 39/39/39
f 42/42/42 41/41/41 39/39/39
f 45/45/45 44/44/44 43/43/43
f 46/46/46 45/45/45 43/43/43
f 49/49/49 48/48/48 47/47/47
f 50/50/50 49/49/49 47/47/47
f 53/53/53 52/52/52 51/51/51
f 52/52/52 53/53/53 54/54/54
f 55/55/55 54/54/54 53/53/53
f 54/54/54 55/55/55 56/56/56
f 57/57/57 56/56/56 55/55/55
f 56/56/56 57/57/57 58/58/58
f 59/59/59 58/58/58 57/57/57
f 62/62/62 61/61/61 60/60/60
f 63/63/63 62/62/62 60/60/60
f 66/66/66 65/65/65 64/64/64
f 67/67/67 66/66/66 64/64/64
f 70/70/70 69/69/69 68/68/68
f 71/71/71 70/70/70 68/68/68
f 74/74/74 73/73/73 72/72/72
f 75/75/75 74/74/74 72/72/72
f 78/78/78 77/77/77 76/76/76
f 79/79/79 78/78/78 76/76/76
f 82/82/82 81/81/81 80/80/80
f 83/83/83 82/82/82 80/80/80
f 86/86/86 85/85/85 84/84/84
f 85/85/85 86/86/86 87/87/87
f 87/87/87 88/88/88 85/85/85
f 91/91/91 90/90/90 89/89/89
f 90/90/90 91/91/91 92/92/92
f 93/93/93 92/92/92 91/91/91
f 96/96/96 95/95/95 94/94/94
f 97/97/97 96/96/96 94/94/94
f 100/100/100 99/99/99 98/98/98
f 101/101/101 100/100/100 98/98/98
f 104/104/104 103/103/103 102/102/102
f 105/105/105 104/104/104 102/102/102
f 108/108/108 107/107/107 106/106/106
f 109/109/109 108/108/108 106/106/106
f 112/112/112 111/111/111 110/110/110
f 113/113/113 112/112/112 110/110/110
f 116/116/116 115/115/115 114/114/114
f 117/117/117 116/116/116 114/114/114
f 120/120/120 119/119/119 118/118/118
f 121/121/121 120/120/120 118/118/118
f 124/124/124 123/123/123 122/122/122
f 125/125/125 124/124/124 122/122/122
f 128/128/128 127/127/127 126/126/126
f 129/129/129 128/128/128 126/126/126
f 132/132/132 131/131/131 130/130/130
f 133/133/133 132/132/132 130/130/130
f 136/136/136 135/135/135 134/134/134
f 134/134/134 135/135/135 137/137/137
f 138/138/138 134/134/134 137/137/137
f 138/138/138 137/137/137 139/139/139
f 137/137/137 140/140/140 139/139/139
f 141/141/141 139/139/139 140/140/140
f 142/142/142 141/141/141 140/140/140
f 145/145/145 144/144/144 143/143/143
f 146/146/146 143/143/143 144/144/144
f 143/143/143 146/146/146 147/147/147
f 147/147/147 148/148/148 143/143/143
f 148/148/148 147/147/147 149/149/149
f 150/150/150 149/149/149 147/147/147
f 149/149/149 150/150/150 151/151/151
f 154/154/154 153/153/153 152/152/152
f 153/153/153 155/155/155 152/152/152
f 152/152/152 155/155/155 156/156/156
f 155/155/155 157/157/157 156/156/156
f 156/156/156 157/157/157 158/158/158
f 157/157/157 159/159/159 158/158/158
f 162/162/162 161/161/161 160/160/160
f 161/161/161 163/163/163 160/160/160
f 163/163/163 164/164/164 160/160/160
f 167/167/167 166/166/166 165/165/165
f 166/166/166 168/168/168 165/165/165
f 169/169/169 165/165/165 168/168/168
