g SM_Sail2
v 0.8913725 1.018362 -0.02291233
v -0.9609929 1.316339 -0.1940405
v -0.9609934 1.017911 -0.02292824
v 0.8913725 1.316578 -0.1940396
v 0.4721256 1.518663 -0.2505715
v 0.8913727 1.341785 -0.2015376
v -0.9609957 1.724746 -0.3053555
v 0.8913696 1.695012 -0.2994332
v 0.8913702 1.724744 -0.3053537
v -0.9609981 1.93314 -0.2499644
v 0.8913727 2.132933 -0.1940407
v -0.4528935 2.133035 -0.1941148
v -0.9609872 2.29774 -0.0999007
v -0.9609926 2.431585 -0.02292896
v 0.891372 2.431153 -0.02291191
v -0.960998 1.349733 -0.1142044
v 0.8913679 1.061533 0.052089
v -0.9609976 1.061069 0.05208057
v 0.8913679 1.349992 -0.1142122
v 0.4721242 1.541773 -0.1671759
v 0.8913679 1.364906 -0.1181449
v -0.960997 1.724748 -0.2188169
v 0.8913692 1.718141 -0.2160431
v 0.8913687 1.724763 -0.2188152
v 0.8913679 2.099524 -0.1142113
v -0.9609982 2.388428 0.05208057
v 0.8913681 2.387981 0.05208839
v -0.9610003 2.25459 -0.0248875
v -0.4528989 2.099642 -0.1142787
v -0.9609961 1.910041 -0.1665658
v 0.8913687 1.724763 -0.2188152
v -0.960997 1.724748 -0.2188169
v -0.960997 1.724748 -0.2188169
v -1.068396 1.349729 -0.1142098
v -1.068395 1.724748 -0.2188188
v -0.960998 1.349733 -0.1142044
v -1.068396 0.9679607 0.1056526
v -0.9609976 1.061069 0.05208057
v 0.9987665 0.968473 0.1056566
v 0.8913679 1.061533 0.052089
v 0.9987663 1.349994 -0.1142065
v 0.8913679 1.349992 -0.1142122
v 0.998766 1.432577 -0.1368935
v 0.8913679 1.364906 -0.1181449
v 0.7402498 1.541637 -0.1671329
v 0.4721242 1.541773 -0.1671759
v 0.998768 1.650386 -0.1972667
v 0.8913692 1.718141 -0.2160431
v 0.9987677 1.724758 -0.2188133
v 0.8913687 1.724763 -0.2188152
v -1.068395 1.724748 -0.2188188
v -0.9609961 1.910041 -0.1665658
v -0.960997 1.724748 -0.2188169
v -1.068394 1.981075 -0.1468845
v -0.4528989 2.099642 -0.1142787
v -0.7409465 2.099691 -0.1142246
v -0.9610003 2.25459 -0.0248875
v -1.068398 2.186312 -0.06419288
v -0.9609982 2.388428 0.05208057
v -1.068396 2.481535 0.1056525
v 0.8913681 2.387981 0.05208839
v 0.9987665 2.481042 0.1056565
v 0.8913679 2.099524 -0.1142113
v 0.9987663 2.099521 -0.1142063
v 0.8913687 1.724763 -0.2188152
v 0.9987677 1.724758 -0.2188133
v -1.068392 1.316337 -0.1940461
v -1.068396 0.9679607 0.1056526
v -1.068392 0.9248006 0.03064514
v -1.068396 1.349729 -0.1142098
v -1.068394 1.724747 -0.3053573
v -1.068395 1.724748 -0.2188188
v -1.068398 2.004179 -0.2302817
v -1.068394 1.981075 -0.1468845
v -1.068394 1.981075 -0.1468845
v -0.7409547 2.133215 -0.1940058
v -0.7409465 2.099691 -0.1142246
v -1.068398 2.004179 -0.2302817
v -0.7409465 2.099691 -0.1142246
v -1.068387 2.229468 -0.1392028
v -1.068398 2.186312 -0.06419288
v -0.7409547 2.133215 -0.1940058
v -1.068398 2.186312 -0.06419288
v -1.068393 2.524696 0.03064552
v -1.068396 2.481535 0.1056525
v -1.068387 2.229468 -0.1392028
v -1.068396 2.481535 0.1056525
v 0.9987699 2.524212 0.03065483
v 0.9987665 2.481042 0.1056565
v -1.068393 2.524696 0.03064552
v 0.9987706 2.132931 -0.1940354
v 0.9987665 2.481042 0.1056565
v 0.9987699 2.524212 0.03065483
v 0.9987663 2.099521 -0.1142063
v 0.9987671 1.724756 -0.3053518
v 0.9987677 1.724758 -0.2188133
v 0.9987667 1.627274 -0.2806616
v 0.998768 1.650386 -0.1972667
v 0.998768 1.650386 -0.1972667
v 0.7402517 1.518524 -0.2505278
v 0.7402498 1.541637 -0.1671329
v 0.9987667 1.627274 -0.2806616
v 0.7402498 1.541637 -0.1671329
v 0.9987713 1.409462 -0.2202879
v 0.998766 1.432577 -0.1368935
v 0.7402517 1.518524 -0.2505278
v 0.9987704 1.316583 -0.194035
v 0.998766 1.432577 -0.1368935
v 0.9987713 1.409462 -0.2202879
v 0.9987663 1.349994 -0.1142065
v 0.9987699 0.9253038 0.03065445
v 0.9987665 0.968473 0.1056566
v 0.9987665 0.968473 0.1056566
v -1.068392 0.9248006 0.03064514
v -1.068396 0.9679607 0.1056526
v 0.9987699 0.9253038 0.03065445
v -1.068387 2.229468 -0.1392028
v -0.9609926 2.431585 -0.02292896
v -1.068393 2.524696 0.03064552
v -0.9609872 2.29774 -0.0999007
v 0.891372 2.431153 -0.02291191
v -0.7409547 2.133215 -0.1940058
v 0.9987699 2.524212 0.03065483
v -0.4528935 2.133035 -0.1941148
v 0.8913727 2.132933 -0.1940407
v -1.068398 2.004179 -0.2302817
v 0.9987706 2.132931 -0.1940354
v -0.9609981 1.93314 -0.2499644
v 0.8913702 1.724744 -0.3053537
v -1.068394 1.724747 -0.3053573
v 0.9987671 1.724756 -0.3053518
v -0.9609957 1.724746 -0.3053555
v 0.8913696 1.695012 -0.2994332
v -1.068392 1.316337 -0.1940461
v 0.9987667 1.627274 -0.2806616
v -0.9609929 1.316339 -0.1940405
v 0.4721256 1.518663 -0.2505715
v -1.068392 0.9248006 0.03064514
v 0.7402517 1.518524 -0.2505278
v -0.9609934 1.017911 -0.02292824
v 0.8913727 1.341785 -0.2015376
v 0.9987699 0.9253038 0.03065445
v 0.9987713 1.409462 -0.2202879
v 0.8913725 1.018362 -0.02291233
v 0.8913725 1.316578 -0.1940396
v 0.9987704 1.316583 -0.194035
vt 0.07431024 0.8167931
vt 0.07437333 0.8190684
vt 0.07437333 0.8167897
vt 0.07431024 0.8190703
vt 0.07432453 0.8206132
vt 0.07431024 0.8192627
vt 0.07437333 0.8221868
vt 0.07431024 0.8219599
vt 0.07431024 0.8221868
vt 0.07437333 0.8237781
vt 0.07431024 0.8253036
vt 0.07435603 0.8253044
vt 0.07437333 0.8265621
vt 0.07437333 0.8275841
vt 0.07431024 0.8275809
vt 0.07437333 0.8193234
vt 0.07431024 0.8171226
vt 0.07437333 0.8171192
vt 0.07431024 0.8193253
vt 0.07432453 0.8207898
vt 0.07431024 0.8194391
vt 0.07437333 0.8221868
vt 0.07431024 0.8221363
vt 0.07431024 0.822187
vt 0.07431024 0.8250486
vt 0.07437333 0.8272546
vt 0.07431024 0.8272511
vt 0.07437333 0.8262326
vt 0.07435603 0.8250495
vt 0.07437333 0.8236018
vt 0.07431024 0.822187
vt 0.07437333 0.8221868
vt 0.06719799 0.8215705
vt 0.06720164 0.8201873
vt 0.06720164 0.8215705
vt 0.06719799 0.8201873
vt 0.06720164 0.8187791
vt 0.06719799 0.8191225
vt 0.06713125 0.818781
vt 0.0671349 0.8191242
vt 0.06713125 0.8201882
vt 0.0671349 0.8201882
vt 0.06713125 0.8204928
vt 0.0671349 0.8202432
vt 0.06714005 0.8208951
vt 0.06714918 0.8208956
vt 0.06713125 0.8212962
vt 0.0671349 0.8215461
vt 0.06713125 0.8215706
vt 0.0671349 0.8215706
vt 0.06720164 0.8215705
vt 0.06719799 0.8222541
vt 0.06719799 0.8215705
vt 0.06720164 0.822516
vt 0.06718069 0.8229534
vt 0.0671905 0.8229535
vt 0.06719799 0.8235249
vt 0.06720164 0.823273
vt 0.06719799 0.8240186
vt 0.06720164 0.824362
vt 0.0671349 0.8240169
vt 0.06713125 0.8243602
vt 0.0671349 0.822953
vt 0.06713125 0.822953
vt 0.0671349 0.8215706
vt 0.06713125 0.8215706
vt 0.08487092 0.8190684
vt 0.08487092 0.8164082
vt 0.08487092 0.8160786
vt 0.08487092 0.8193234
vt 0.08487092 0.8221868
vt 0.08487092 0.8221868
vt 0.08487092 0.8243206
vt 0.08487092 0.8241441
vt 0.08487092 0.8241441
vt 0.08485977 0.8253058
vt 0.08485977 0.8250497
vt 0.08487092 0.8243206
vt 0.08485977 0.8250497
vt 0.08487092 0.8260408
vt 0.08487092 0.8257112
vt 0.08485977 0.8253058
vt 0.08487092 0.8257112
vt 0.08487092 0.8282951
vt 0.08487092 0.8279654
vt 0.08487092 0.8260408
vt 0.07437699 0.8279654
vt 0.07430659 0.8282915
vt 0.07430659 0.8279617
vt 0.07437699 0.8282951
vt 0.08480053 0.8253036
vt 0.08480053 0.8279617
vt 0.08480053 0.8282915
vt 0.08480053 0.8250486
vt 0.08480053 0.8221869
vt 0.08480053 0.8221869
vt 0.08480053 0.8214425
vt 0.08480053 0.821619
vt 0.08480053 0.821619
vt 0.08480933 0.8206123
vt 0.08480933 0.8207886
vt 0.08480053 0.8214425
vt 0.08480933 0.8207886
vt 0.08480053 0.8197795
vt 0.08480053 0.8199558
vt 0.08480933 0.8206123
vt 0.08480053 0.8190703
vt 0.08480053 0.8199558
vt 0.08480053 0.8197795
vt 0.08480053 0.8193253
vt 0.08480053 0.8160824
vt 0.08480053 0.8164122
vt 0.08480053 0.8164122
vt 0.08487092 0.8160786
vt 0.08487092 0.8164082
vt 0.08480053 0.8160824
vt 0.06720164 0.8234323
vt 0.06719799 0.8241778
vt 0.06720164 0.8245212
vt 0.06719799 0.8236841
vt 0.0671349 0.8241763
vt 0.0671905 0.8230772
vt 0.06713125 0.8245195
vt 0.06718069 0.8230765
vt 0.0671349 0.8230762
vt 0.06720164 0.8226013
vt 0.06713125 0.8230762
vt 0.06719799 0.8223392
vt 0.0671349 0.8215705
vt 0.06720164 0.8215705
vt 0.06713125 0.8215706
vt 0.06719799 0.8215705
vt 0.0671349 0.8214609
vt 0.06720164 0.8200641
vt 0.06713125 0.821211
vt 0.06719799 0.8200641
vt 0.06714918 0.8208104
vt 0.06720164 0.8186198
vt 0.06714005 0.8208099
vt 0.06719799 0.8189633
vt 0.0671349 0.8201579
vt 0.06713125 0.8186217
vt 0.06713125 0.8204076
vt 0.0671349 0.818965
vt 0.0671349 0.820065
vt 0.06713125 0.820065
vn 0.0001497435 -0.4980199 -0.8671656
vn -0.0003359541 -0.3881586 -0.9215925
vn 3.941895E-05 -0.4978704 -0.8672515
vn 3.291053E-06 -0.463111 -0.8863003
vn -0.0005647744 -0.266657 -0.9637913
vn -0.00099113 -0.2720345 -0.962287
vn -0.0005381007 -0.05510252 -0.9984806
vn -0.0001089333 -0.2471129 -0.9689867
vn 0.0006374292 0.2328004 -0.9725243
vn -7.160428E-05 0.2603579 -0.9655122
vn 0.0004465283 0.3709573 -0.9286498
vn 8.034433E-05 0.3814129 -0.9244047
vn 0.000351157 0.4981968 -0.8670639
vn 0.0001790313 0.4985787 -0.8668445
vn 0.0001890243 0.4980558 -0.8671449
vn -0.0002334798 0.3943146 0.9189755
vn -5.481571E-05 0.499217 0.866477
vn -0.0001481181 0.4990447 0.8665761
vn -8.457113E-05 0.4666804 0.8844261
vn -0.0002604094 0.2672016 0.9636406
vn -0.000496485 0.2648916 0.9642781
vn -0.0003794312 0.2686732 0.9632313
vn -0.0001069659 0.2774858 0.9607298
vn -3.579336E-06 0.3861729 0.9224265
vn 8.672707E-05 -0.3776941 0.9259305
vn -4.073134E-05 -0.4987668 0.8667362
vn -8.071469E-05 -0.4992303 0.8664694
vn 5.828458E-05 -0.4987523 0.8667447
vn -7.415601E-05 -0.3811061 0.9245313
vn -3.534485E-05 -0.2698413 0.9629048
vn 0.0002514474 -0.268927 0.9631605
vn 2.264675E-07 -0.271409 0.9624641
vn -0.0003794312 0.2686732 0.9632313
vn -5.403582E-05 0.394061 0.9190843
vn -1.810014E-05 0.2686854 0.963228
vn -0.0002334798 0.3943146 0.9189755
vn -0.0001581649 0.4988678 0.8666781
vn -0.0001481181 0.4990447 0.8665761
vn -1.032076E-05 0.4988736 0.8666748
vn -5.481571E-05 0.499217 0.866477
vn 5.311879E-05 0.4560817 0.8899379
vn -8.457113E-05 0.4666804 0.8844261
vn -1.972649E-05 0.2665619 0.9638178
vn -0.000496485 0.2648916 0.9642781
vn -2.161952E-05 0.2670906 0.9636714
vn -0.0002604094 0.2672016 0.9636406
vn 0.001172691 0.2687873 0.9631989
vn -0.0001069659 0.2774858 0.9607298
vn 0.007600093 0.2787131 0.9603444
vn -3.579336E-06 0.3861729 0.9224265
vn -0.0009150638 -0.2709258 0.9625998
vn -3.534485E-05 -0.2698413 0.9629048
vn 2.264675E-07 -0.271409 0.9624641
vn -0.0006012955 -0.2677804 0.9634798
vn -7.415601E-05 -0.3811061 0.9245313
vn 0.0001163312 -0.4063726 0.9137074
vn 5.828458E-05 -0.4987523 0.8667447
vn 0.0001490289 -0.4990034 0.8666
vn -4.073134E-05 -0.4987668 0.8667362
vn -9.679792E-05 -0.4988016 0.8667162
vn -8.071469E-05 -0.4992303 0.8664694
vn -4.191012E-05 -0.4988659 0.8666791
vn 8.672707E-05 -0.3776941 0.9259305
vn -5.240844E-05 -0.3942741 0.9189929
vn 0.0002514474 -0.268927 0.9631605
vn -2.921202E-05 -0.2688517 0.9631816
vn -1 -2.380311E-05 -4.617854E-05
vn -1 -2.097565E-05 -3.949393E-05
vn -1 -1.99983E-05 -3.873844E-05
vn -1 -2.331264E-05 -4.458967E-05
vn -1 -6.510952E-06 -1.273247E-05
vn -1 -4.324361E-06 -4.429318E-06
vn -1 -1.003594E-05 4.144675E-05
vn -1 -9.669642E-06 5.415773E-05
vn -0.3747173 0.8885045 0.2648523
vn -0.3542231 0.8692083 0.3449683
vn -0.3491476 0.863883 0.3630457
vn -0.3788337 0.8918665 0.2471018
vn -0.3146686 -0.8679106 -0.384337
vn -0.2966093 -0.8369092 -0.4600064
vn -0.2921588 -0.828944 -0.4769645
vn -0.3183713 -0.8739559 -0.3672067
vn -1 4.445389E-05 -0.0001026821
vn -1 2.719459E-05 -4.284205E-05
vn -1 2.319274E-05 -2.896717E-05
vn -1 4.845544E-05 -0.000116556
vn 0.0002010202 0.8667423 0.4987562
vn 0.0002057312 0.8666885 0.4988497
vn 0.0002058637 0.866687 0.4988522
vn 0.0002008877 0.8667439 0.4987535
vn 1 -2.234007E-05 4.34155E-05
vn 1 -1.943065E-05 3.667427E-05
vn 1 -1.875765E-05 3.584328E-05
vn 1 -2.135362E-05 4.121672E-05
vn 1 -3.965789E-07 0
vn 1 3.89899E-06 -7.677603E-06
vn 1 -4.973223E-06 -1.045122E-05
vn 1 -1.821888E-06 -1.518609E-05
vn 0.4000648 -0.8831952 0.2447743
vn 0.4000607 -0.883193 0.2447887
vn 0.4000593 -0.8831924 0.2447931
vn 0.4000662 -0.8831958 0.2447699
vn 0.4010402 0.8827846 -0.244659
vn 0.4010406 0.8827848 -0.2446575
vn 0.4010408 0.8827849 -0.244657
vn 0.40104 0.8827845 -0.2446595
vn 1 2.094954E-05 4.394296E-05
vn 1 1.226389E-05 5.397912E-05
vn 1 1.023046E-05 6.086144E-05
vn 1 2.130249E-05 4.180011E-05
vn 1 2.133464E-05 3.58406E-05
vn 1 2.114258E-05 3.496464E-05
vn 0.0002088812 -0.8666938 0.4988405
vn 0.0002137381 -0.8667502 0.4987423
vn 0.0002138748 -0.8667518 0.4987396
vn 0.0002087445 -0.8666922 0.4988433
vn 0.0006900964 0.4980148 -0.8671683
vn 0.0001790313 0.4985787 -0.8668445
vn 9.685395E-05 0.4988001 -0.8667171
vn 0.000351157 0.4981968 -0.8670639
vn 0.0001890243 0.4980558 -0.8671449
vn -2.851836E-05 0.4048911 -0.9143649
vn 0.0002382836 0.4986248 -0.8668178
vn 8.034433E-05 0.3814129 -0.9244047
vn 0.0004465283 0.3709573 -0.9286498
vn -0.001588206 0.2651233 -0.9642133
vn 4.837267E-05 0.3874556 -0.9218884
vn -7.160428E-05 0.2603579 -0.9655122
vn 0.0006374292 0.2328004 -0.9725243
vn -0.0006998176 -0.07836371 -0.9969246
vn 0.002398653 0.1791341 -0.9838217
vn -0.0005381007 -0.05510252 -0.9984806
vn -0.0001089333 -0.2471129 -0.9689867
vn 5.39933E-05 -0.3872608 -0.9219701
vn 0.002817107 -0.26291 -0.9648163
vn -0.0003359541 -0.3881586 -0.9215925
vn -0.0005647744 -0.266657 -0.9637913
vn -3.9259E-05 -0.4986238 -0.8668185
vn 2.134773E-05 -0.267089 -0.9636719
vn 3.941895E-05 -0.4978704 -0.8672515
vn -0.00099113 -0.2720345 -0.962287
vn 0.0003057804 -0.4986168 -0.8668225
vn 0.0001879384 -0.2683685 -0.9633163
vn 0.0001497435 -0.4980199 -0.8671656
vn 3.291053E-06 -0.463111 -0.8863003
vn 0.000243477 -0.4527627 -0.891631
g SM_Sail2_0
f 3/3/3 2/2/2 1/1/1
f 4/4/4 1/1/1 2/2/2
f 4/4/4 2/2/2 5/5/5
f 6/6/6 4/4/4 5/5/5
f 2/2/2 7/7/7 5/5/5
f 7/7/7 8/8/8 5/5/5
f 9/9/9 8/8/8 7/7/7
f 7/7/7 10/10/10 9/9/9
f 10/10/10 11/11/11 9/9/9
f 12/12/12 11/11/11 10/10/10
f 12/12/12 13/13/13 11/11/11
f 11/11/11 13/13/13 14/14/14
f 15/15/15 11/11/11 14/14/14
f 18/18/18 17/17/17 16/16/16
f 19/19/19 16/16/16 17/17/17
f 20/20/20 16/16/16 19/19/19
f 21/21/21 20/20/20 19/19/19
f 22/22/22 16/16/16 20/20/20
f 23/23/23 22/22/22 20/20/20
f 24/24/24 22/22/22 23/23/23
f 27/27/27 26/26/26 25/25/25
f 26/26/26 28/28/28 25/25/25
f 28/28/28 29/29/29 25/25/25
f 25/25/25 29/29/29 30/30/30
f 31/31/31 25/25/25 30/30/30
f 32/32/32 31/31/31 30/30/30
f 35/35/35 34/34/34 33/33/33
f 36/36/36 33/33/33 34/34/34
f 34/34/34 37/37/37 36/36/36
f 38/38/38 36/36/36 37/37/37
f 37/37/37 39/39/39 38/38/38
f 40/40/40 38/38/38 39/39/39
f 39/39/39 41/41/41 40/40/40
f 42/42/42 40/40/40 41/41/41
f 41/41/41 43/43/43 42/42/42
f 44/44/44 42/42/42 43/43/43
f 43/43/43 45/45/45 44/44/44
f 46/46/46 44/44/44 45/45/45
f 45/45/45 47/47/47 46/46/46
f 48/48/48 46/46/46 47/47/47
f 47/47/47 49/49/49 48/48/48
f 50/50/50 48/48/48 49/49/49
f 53/53/53 52/52/52 51/51/51
f 54/54/54 51/51/51 52/52/52
f 52/52/52 55/55/55 54/54/54
f 56/56/56 54/54/54 55/55/55
f 55/55/55 57/57/57 56/56/56
f 58/58/58 56/56/56 57/57/57
f 57/57/57 59/59/59 58/58/58
f 60/60/60 58/58/58 59/59/59
f 59/59/59 61/61/61 60/60/60
f 62/62/62 60/60/60 61/61/61
f 61/61/61 63/63/63 62/62/62
f 64/64/64 62/62/62 63/63/63
f 63/63/63 65/65/65 64/64/64
f 66/66/66 64/64/64 65/65/65
f 69/69/69 68/68/68 67/67/67
f 70/70/70 67/67/67 68/68/68
f 67/67/67 70/70/70 71/71/71
f 72/72/72 71/71/71 70/70/70
f 71/71/71 72/72/72 73/73/73
f 74/74/74 73/73/73 72/72/72
f 77/77/77 76/76/76 75/75/75
f 78/78/78 75/75/75 76/76/76
f 81/81/81 80/80/80 79/79/79
f 82/82/82 79/79/79 80/80/80
f 85/85/85 84/84/84 83/83/83
f 86/86/86 83/83/83 84/84/84
f 89/89/89 88/88/88 87/87/87
f 90/90/90 87/87/87 88/88/88
f 93/93/93 92/92/92 91/91/91
f 94/94/94 91/91/91 92/92/92
f 91/91/91 94/94/94 95/95/95
f 96/96/96 95/95/95 94/94/94
f 95/95/95 96/96/96 97/97/97
f 98/98/98 97/97/97 96/96/96
f 101/101/101 100/100/100 99/99/99
f 102/102/102 99/99/99 100/100/100
f 105/105/105 104/104/104 103/103/103
f 106/106/106 103/103/103 104/104/104
f 109/109/109 108/108/108 107/107/107
f 110/110/110 107/107/107 108/108/108
f 107/107/107 110/110/110 111/111/111
f 112/112/112 111/111/111 110/110/110
f 115/115/115 114/114/114 113/113/113
f 116/116/116 113/113/113 114/114/114
f 119/119/119 118/118/118 117/117/117
f 120/120/120 117/117/117 118/118/118
f 118/118/118 119/119/119 121/121/121
f 117/117/117 120/120/120 122/122/122
f 123/123/123 121/121/121 119/119/119
f 124/124/124 122/122/122 120/120/120
f 121/121/121 123/123/123 125/125/125
f 122/122/122 124/124/124 126/126/126
f 127/127/127 125/125/125 123/123/123
f 128/128/128 126/126/126 124/124/124
f 125/125/125 127/127/127 129/129/129
f 126/126/126 128/128/128 130/130/130
f 131/131/131 129/129/129 127/127/127
f 132/132/132 130/130/130 128/128/128
f 129/129/129 131/131/131 133/133/133
f 130/130/130 132/132/132 134/134/134
f 135/135/135 133/133/133 131/131/131
f 136/136/136 134/134/134 132/132/132
f 133/133/133 135/135/135 137/137/137
f 134/134/134 136/136/136 138/138/138
f 139/139/139 137/137/137 135/135/135
f 140/140/140 138/138/138 136/136/136
f 137/137/137 139/139/139 141/141/141
f 138/138/138 140/140/140 142/142/142
f 143/143/143 141/141/141 139/139/139
f 144/144/144 142/142/142 140/140/140
f 141/141/141 143/143/143 145/145/145
f 142/142/142 144/144/144 146/146/146
f 146/146/146 145/145/145 143/143/143
f 145/145/145 146/146/146 144/144/144
